<svg width="35" height="35" viewBox="0 0 35 35" fill="none" xmlns="http://www.w3.org/2000/svg">
<g clip-path="url(#clip0_508_2)">
<mask id="mask0_508_2" style="mask-type:luminance" maskUnits="userSpaceOnUse" x="0" y="0" width="40" height="40">
<path d="M6.10352e-05 0.0490723H39.8427V39.8917H6.10352e-05V0.0490723Z" fill="white"/>
</mask>
<g mask="url(#mask0_508_2)">
<path d="M34.3399 15.9906L19.0584 0.710059C18.8491 0.500587 18.6005 0.334416 18.3269 0.221043C18.0533 0.10767 17.7601 0.0493164 17.464 0.0493164C17.1678 0.0493164 16.8746 0.10767 16.601 0.221043C16.3274 0.334416 16.0789 0.500587 15.8695 0.710059L12.6974 3.88372L16.722 7.90832C17.1951 7.74763 17.7038 7.72254 18.1905 7.8359C18.6772 7.94925 19.1224 8.19653 19.4759 8.54976C19.8313 8.90554 20.0794 9.35418 20.1918 9.84436C20.3042 10.3345 20.2764 10.8465 20.1116 11.3216L23.9918 15.2007C24.467 15.0356 24.9791 15.0078 25.4694 15.1204C25.9597 15.2331 26.4084 15.4816 26.7639 15.8375C27.013 16.0865 27.2105 16.3822 27.3453 16.7075C27.4801 17.0329 27.5495 17.3817 27.5495 17.7338C27.5495 18.086 27.4801 18.4348 27.3453 18.7601C27.2105 19.0855 27.013 19.3811 26.7639 19.6302C26.2604 20.1331 25.5778 20.4157 24.8661 20.4157C24.1544 20.4157 23.4718 20.1331 22.9683 19.6302C22.5943 19.2555 22.3394 18.7786 22.2358 18.2594C22.1323 17.7402 22.1846 17.202 22.3863 16.7125L18.7678 13.095V22.6164C19.1497 22.8051 19.4812 23.082 19.7348 23.4243C19.9884 23.7666 20.1568 24.1644 20.226 24.5847C20.2952 25.005 20.2634 25.4358 20.133 25.8414C20.0026 26.2469 19.7775 26.6156 19.4762 26.9168C19.2272 27.1658 18.9316 27.3634 18.6062 27.4982C18.2809 27.633 17.9321 27.7024 17.5799 27.7024C17.2278 27.7024 16.879 27.633 16.5537 27.4982C16.2283 27.3634 15.9327 27.1658 15.6837 26.9168C15.4345 26.6678 15.2369 26.3721 15.1021 26.0467C14.9673 25.7213 14.8979 25.3725 14.8979 25.0203C14.8979 24.668 14.9673 24.3193 15.1021 23.9939C15.2369 23.6684 15.4345 23.3728 15.6837 23.1238C15.9346 22.8723 16.2329 22.6731 16.5612 22.5376V12.9286C16.2342 12.7939 15.937 12.5959 15.6867 12.346C15.4364 12.0961 15.238 11.7992 15.1028 11.4724C14.9676 11.1455 14.8983 10.7952 14.8989 10.4415C14.8995 10.0878 14.9699 9.73773 15.1062 9.41135L11.138 5.44237L0.658831 15.919C0.236553 16.3422 -0.000610352 16.9155 -0.000610352 17.5133C-0.000610352 18.1111 0.236553 18.6844 0.658831 19.1076L15.9411 34.3901C16.3642 34.8122 16.9375 35.0493 17.5352 35.0493C18.1329 35.0493 18.7062 34.8122 19.1292 34.3901L34.3399 19.1792C34.7622 18.7561 34.9994 18.1827 34.9994 17.5849C34.9994 16.9871 34.7622 16.4138 34.3399 15.9906Z" fill="#FF2E47"/>
</g>
</g>
<defs>
<clipPath id="clip0_508_2">
<rect width="35" height="35" fill="white"/>
</clipPath>
</defs>
</svg>
