<svg width="35" height="35" viewBox="0 0 35 35" fill="none" xmlns="http://www.w3.org/2000/svg">
<g clip-path="url(#clip0_504_299)">
<path d="M-6.10352e-05 5C-6.10352e-05 2.23858 2.23852 0 4.99994 0H29.9999C32.7614 0 34.9999 2.23858 34.9999 5V30C34.9999 32.7614 32.7614 35 29.9999 35H4.99994C2.23851 35 -6.10352e-05 32.7614 -6.10352e-05 30V5Z" fill="#FF2E47"/>
<path d="M31.79 25.0732C31.5339 23.1741 30.4929 21.5796 27.4097 20.092C26.3388 19.5065 25.1447 19.0871 24.7889 18.1217C24.6625 17.5599 24.6459 17.2434 24.7257 16.9031C24.9552 15.7993 26.0627 15.4551 26.9408 15.7716C27.5062 15.9971 28.0417 16.5155 28.3643 17.3423C29.8743 16.1792 29.8709 16.187 30.9253 15.3879C30.5395 14.6757 30.3332 14.3473 30.0805 14.0427C29.1725 12.836 27.9352 12.2148 25.9563 12.2623C25.6137 12.3137 25.2678 12.3691 24.9252 12.4206C23.9375 12.7173 22.9962 13.3345 22.4441 14.1614C20.7877 16.3968 21.26 20.3096 23.2756 21.9199C25.2612 23.6924 28.178 24.096 28.5505 25.7537C28.9131 27.7834 27.2967 28.4401 25.6902 28.2067C24.5062 27.9139 23.8477 27.1978 23.1359 25.8961C21.8255 26.7982 21.8255 26.7982 20.4785 27.7201C20.7977 28.5509 21.1336 28.9268 21.6691 29.6468C24.2035 32.7052 30.5461 32.5548 31.6836 27.9258C31.7301 27.7675 32.0362 26.7072 31.79 25.0732ZM18.6857 12.5076H15.413C15.413 15.8705 15.3997 19.2097 15.3997 22.5727C15.3997 24.7131 15.4928 26.6755 15.2002 27.2769C14.7212 28.4598 13.4806 28.3135 12.9152 28.084C12.3398 27.7477 12.0471 27.2689 11.7079 26.5924C11.6148 26.3986 11.5449 26.2482 11.5216 26.2364C10.6336 26.8813 9.74887 27.5301 8.86084 28.175C9.30323 29.2551 9.95508 30.1928 10.7899 30.802C12.0371 31.6922 13.7134 31.9652 15.4662 31.4865C16.607 31.0909 17.5915 30.2719 18.107 29.0256C18.852 27.3916 18.6924 25.4134 18.6857 23.2255C18.7024 19.6568 18.6857 16.0881 18.6857 12.5076Z" fill="white"/>
</g>
<defs>
<clipPath id="clip0_504_299">
<rect width="35" height="35" fill="white"/>
</clipPath>
</defs>
</svg>
