<svg width="45" height="45" viewBox="0 0 45 45" fill="none" xmlns="http://www.w3.org/2000/svg">
<g clip-path="url(#clip0_504_334)">
<path d="M34.2 0H10.8C4.83532 0 0 4.83532 0 10.8V34.2C0 40.1647 4.83532 45 10.8 45H34.2C40.1647 45 45 40.1647 45 34.2V10.8C45 4.83532 40.1647 0 34.2 0Z" fill="#FFABB5"/>
<path fill-rule="evenodd" clip-rule="evenodd" d="M5.79507 31.1195C9.07696 34.1412 14.9302 32.7211 22.4991 32.7211C30.0681 32.7211 35.9212 34.1412 39.2033 31.1195C41.9306 28.6085 40.6418 25.5438 41.4924 21.4705C38.6326 13.7815 31.2086 8.30127 22.4999 8.30127C13.7902 8.30127 6.36531 13.7825 3.50641 21.4731C4.3561 25.5452 3.0682 28.6089 5.79507 31.1195Z" fill="#FF2E47"/>
<path fill-rule="evenodd" clip-rule="evenodd" d="M27.7083 37.6612C27.3337 38.6571 26.5988 39.5321 25.6724 40.1377C24.7462 40.7465 23.6188 41.0775 22.5 41.0755C21.3812 41.0775 20.2537 40.7465 19.3275 40.1379C18.4012 39.5323 17.666 38.6571 17.2915 37.6614C17.0991 37.1505 17.3592 36.5811 17.8715 36.3895C18.2526 36.2472 18.6661 36.3536 18.932 36.6277L18.986 36.684C19.4911 37.2056 20.0417 37.6103 20.6379 37.8804C21.2324 38.1517 21.8607 38.2863 22.4998 38.2877C23.1393 38.2863 23.7677 38.1517 24.3622 37.8802C24.9582 37.6103 25.5088 37.2056 26.0138 36.6838L26.0673 36.6285C26.4474 36.2357 27.0747 36.2248 27.4686 36.6037C27.7616 36.8851 27.8422 37.3037 27.7083 37.6612Z" fill="#FF2E47"/>
<path fill-rule="evenodd" clip-rule="evenodd" d="M25.6725 39.3013C24.7463 39.9103 23.6188 40.2411 22.5001 40.2391C21.3814 40.2411 20.2538 39.9103 19.3276 39.3015C18.4242 38.7109 17.7035 37.8637 17.321 36.8987C17.2131 37.1302 17.1945 37.4033 17.2914 37.6615C17.6661 38.6572 18.4014 39.5324 19.3276 40.1379C20.2538 40.7465 21.3814 41.0776 22.5001 41.0755C23.6188 41.0776 24.7463 40.7465 25.6725 40.1377C26.5987 39.5322 27.3338 38.6572 27.7084 37.6613C27.8006 37.415 27.7885 37.1407 27.6777 36.9011C27.2949 37.8653 26.5749 38.7113 25.6725 39.3013Z" fill="#FF2E47"/>
<path fill-rule="evenodd" clip-rule="evenodd" d="M3.98145 17.935C3.98145 20.837 4.24409 24.444 4.77526 26.0562C5.59134 28.5339 6.66193 29.5599 8.83071 30.4036C11.5942 31.4789 17.487 32.1751 22.4999 32.1458C27.5128 32.1751 33.4057 31.4789 36.169 30.4036C38.3378 29.5599 39.4084 28.5339 40.2247 26.0562C40.7559 24.444 41.0183 20.837 41.0183 17.935C41.0183 15.0328 40.7559 11.4258 40.2247 9.81361C39.4084 7.33591 38.3378 6.30991 36.169 5.4662C33.4057 4.39094 27.5128 3.69477 22.4999 3.72403C17.487 3.69477 11.5942 4.39094 8.83071 5.4662C6.66193 6.30991 5.59134 7.33591 4.77526 9.81361C4.24409 11.4258 3.98145 15.0328 3.98145 17.935Z" fill="#FF2E47"/>
<path fill-rule="evenodd" clip-rule="evenodd" d="M15.5342 22.8354C13.9502 22.8354 12.6664 21.5554 12.6664 19.9768V15.8928C12.6664 14.3141 13.9502 13.0342 15.5342 13.0342C17.1179 13.0342 18.402 14.3141 18.402 15.8928V19.9768C18.402 21.5554 17.1179 22.8354 15.5342 22.8354Z" fill="#FCFCFC"/>
<path fill-rule="evenodd" clip-rule="evenodd" d="M29.4639 22.8355C27.8802 22.8355 26.5961 21.5557 26.5961 19.9768V15.893C26.5961 14.3141 27.8802 13.0342 29.4639 13.0342C31.0479 13.0342 32.332 14.3141 32.332 15.893V19.9768C32.332 21.5557 31.0479 22.8355 29.4639 22.8355Z" fill="#FCFCFC"/>
</g>
<defs>
<clipPath id="clip0_504_334">
<rect width="45" height="45" rx="10" fill="white"/>
</clipPath>
</defs>
</svg>
