<svg width="28" height="22" viewBox="0 0 28 22" fill="none" xmlns="http://www.w3.org/2000/svg">
<path d="M23.3574 20.9752H4.64289C2.20108 20.9752 0.214783 18.9889 0.214783 16.5471V4.73255C0.214783 2.29104 2.20138 0.304443 4.64289 0.304443H23.3574C25.7989 0.304443 27.7852 2.29104 27.7852 4.73255V16.5471C27.7852 18.9889 25.7989 20.9752 23.3574 20.9752ZM4.64289 1.59933C2.91515 1.59933 1.50967 3.00481 1.50967 4.73255V16.5471C1.50967 18.2748 2.91515 19.6806 4.64289 19.6806H23.3574C25.0851 19.6806 26.4906 18.2748 26.4906 16.5471V4.73255C26.4906 3.00481 25.0851 1.59933 23.3574 1.59933H4.64289Z" fill="#FF2E47"/>
<path d="M3.59798 4.79424C6.90765 8.01936 10.2173 11.2442 13.527 14.4693C14.144 15.0703 15.0908 14.1256 14.473 13.5233C11.1633 10.2985 7.85362 7.07339 4.54395 3.84858C3.92698 3.24724 2.98009 4.19229 3.59798 4.79424Z" fill="#FF2E47"/>
<path d="M14.4729 14.4693C17.7826 11.2444 21.0923 8.01932 24.4019 4.79451C25.0195 4.19255 24.0732 3.2472 23.456 3.84854C20.1463 7.07335 16.8366 10.2985 13.527 13.5233C12.9094 14.1252 13.8557 15.0706 14.4729 14.4693Z" fill="#FF2E47"/>
<path d="M24.3655 16.752C22.1632 14.6634 19.9607 12.5751 17.7584 10.4865C17.1338 9.89431 16.1863 10.8384 16.8124 11.4324C19.0147 13.521 21.2173 15.6093 23.4195 17.6979C24.0442 18.2901 24.9917 17.3457 24.3655 16.752Z" fill="#FF2E47"/>
<path d="M4.64016 17.6978C6.84242 15.6092 9.04499 13.5209 11.2472 11.4323C11.8731 10.8386 10.9262 9.89385 10.3013 10.4863C8.09902 12.5749 5.89645 14.6632 3.69419 16.7518C3.06834 17.3455 4.01523 18.2906 4.64016 17.6978Z" fill="#FF2E47"/>
</svg>
