<svg width="25" height="25" viewBox="0 0 25 25" fill="none" xmlns="http://www.w3.org/2000/svg">
<g clip-path="url(#clip0_508_136)">
<path d="M0 5C0 2.23858 2.23858 0 5 0H20C22.7614 0 25 2.23858 25 5V20C25 22.7614 22.7614 25 20 25H5C2.23858 25 0 22.7614 0 20V5Z" fill="#FF2E47"/>
<path d="M22.9539 19.0374C22.7709 17.8967 22.0271 16.939 19.8241 16.0455C19.0589 15.6938 18.2058 15.4419 17.9515 14.862C17.8612 14.5246 17.8493 14.3345 17.9064 14.1301C18.0703 13.4671 18.8617 13.2603 19.489 13.4505C19.893 13.5859 20.2756 13.8972 20.5062 14.3939C21.5851 13.6952 21.5827 13.7 22.336 13.22C22.0603 12.7922 21.913 12.5949 21.7324 12.412C21.0836 11.6872 20.1996 11.3141 18.7856 11.3426C18.5409 11.3735 18.2937 11.4067 18.0489 11.4376C17.3432 11.6159 16.6706 11.9866 16.2761 12.4833C15.0927 13.826 15.4301 16.1762 16.8702 17.1434C18.289 18.2081 20.3731 18.4505 20.6392 19.4462C20.8983 20.6653 19.7434 21.0598 18.5955 20.9196C17.7495 20.7437 17.279 20.3136 16.7704 19.5317C15.8341 20.0736 15.8341 20.0736 14.8717 20.6273C15.0998 21.1263 15.3398 21.3521 15.7224 21.7846C17.5333 23.6216 22.0651 23.5313 22.8779 20.7509C22.9111 20.6558 23.1298 20.0189 22.9539 19.0374ZM13.5908 11.4899H11.2524C11.2524 13.5099 11.2429 15.5156 11.2429 17.5355C11.2429 18.8212 11.3094 19.9999 11.1003 20.3611C10.7581 21.0716 9.87168 20.9837 9.46769 20.8459C9.05657 20.6439 8.84744 20.3563 8.60505 19.95C8.53851 19.8335 8.4886 19.7432 8.47194 19.7361C7.83746 20.1235 7.20531 20.5132 6.5708 20.9005C6.88689 21.5493 7.35264 22.1125 7.94913 22.4785C8.84029 23.0132 10.038 23.1771 11.2904 22.8896C12.1055 22.6519 12.8089 22.1601 13.1773 21.4115C13.7096 20.43 13.5955 19.2418 13.5908 17.9276C13.6026 15.7841 13.5908 13.6406 13.5908 11.4899Z" fill="white"/>
</g>
<defs>
<clipPath id="clip0_508_136">
<rect width="25" height="25" fill="white"/>
</clipPath>
</defs>
</svg>
