<svg width="40" height="40" viewBox="0 0 40 40" fill="none" xmlns="http://www.w3.org/2000/svg">
<path d="M20.0002 0C8.9719 0 0 8.97287 0 20.0005C0 31.0301 8.9719 40.0016 20.0002 40.0016C31.0284 40.0016 40 31.0301 40 20.0005C40 8.97287 31.0284 0 20.0002 0ZM29.27 24.0494L28.5434 24.7766C28.3797 24.9397 28.0924 24.9397 27.9293 24.7766L20.2339 17.0819C20.173 17.0207 20.0932 16.9902 20.0135 16.9902C19.9337 16.9902 19.8533 17.0207 19.792 17.0819L12.1087 24.764C11.9462 24.9258 11.6589 24.9258 11.4958 24.764L10.7685 24.0367C10.5999 23.8684 10.5999 23.5925 10.7685 23.4245L19.6983 14.4951C19.779 14.4153 19.8873 14.3709 20.0222 14.3709C20.1386 14.3709 20.2476 14.4153 20.3273 14.4951L29.2697 23.4372C29.4386 23.6061 29.4386 23.8811 29.27 24.0494Z" fill="#FF2E47"/>
</svg>
