<svg width="50" height="50" viewBox="0 0 50 50" fill="none" xmlns="http://www.w3.org/2000/svg">
<path d="M25.0002 0C11.2149 0 0 11.2161 0 25.0006C0 38.7876 11.2149 50.002 25.0002 50.002C38.7855 50.002 50 38.7876 50 25.0006C50 11.2161 38.7855 0 25.0002 0ZM36.5876 30.0617L35.6793 30.9708C35.4746 31.1747 35.1155 31.1747 34.9116 30.9708L25.2924 21.3524C25.2162 21.2758 25.1165 21.2377 25.0168 21.2377C24.9171 21.2377 24.8166 21.2758 24.74 21.3524L15.1358 30.955C14.9328 31.1572 14.5737 31.1572 14.3698 30.955L13.4607 30.0459C13.2499 29.8355 13.2499 29.4906 13.4607 29.2807L24.6229 18.1189C24.7238 18.0192 24.8592 17.9637 25.0278 17.9637C25.1733 17.9637 25.3095 18.0192 25.4092 18.1189L36.5871 29.2965C36.7983 29.5076 36.7983 29.8513 36.5876 30.0617Z" fill="#268ADB"/>
</svg>
