<svg width="30" height="30" viewBox="0 0 30 30" fill="none" xmlns="http://www.w3.org/2000/svg">
<g clip-path="url(#clip0_534_754)">
<mask id="mask0_534_754" style="mask-type:luminance" maskUnits="userSpaceOnUse" x="0" y="0" width="30" height="30">
<path d="M30 0H0V30H30V0Z" fill="white"/>
</mask>
<g mask="url(#mask0_534_754)">
<path d="M15.0001 24.1877C13.4426 24.1877 11.9038 23.7905 10.55 23.0392C7.62798 21.4185 5.8125 18.3379 5.8125 15.0001C5.8125 11.6622 7.62792 8.58162 10.5502 6.96084C11.9038 6.20958 13.4426 5.8125 15.0001 5.8125C17.0105 5.8125 18.92 6.45018 20.5221 7.65666C22.071 8.82312 23.2325 10.4822 23.793 12.3284C23.9266 12.7688 23.678 13.2341 23.2376 13.3679C22.7973 13.5016 22.3318 13.253 22.1981 12.8125C21.2299 9.6225 18.3373 7.47912 15.0002 7.47912C13.725 7.47912 12.4658 7.80384 11.359 8.41824C8.9658 9.74556 7.47924 12.2675 7.47924 15.0001C7.47924 17.7326 8.9658 20.2545 11.3587 21.5818C12.4658 22.1963 13.7249 22.521 15.0002 22.521C18.3145 22.521 21.2015 20.3963 22.1839 17.2342C22.3206 16.7948 22.7872 16.5491 23.227 16.6856C23.6665 16.8221 23.9122 17.2891 23.7757 17.7287C23.2064 19.561 22.0427 21.206 20.499 22.361C18.9014 23.556 17 24.1877 15.0001 24.1877Z" fill="white"/>
<path d="M6.64551 15C6.64551 11.8541 8.38509 9.11439 10.9541 7.68945C13.5231 9.11427 15.2628 11.854 15.2628 15C15.2628 18.146 13.5232 20.8856 10.9541 22.3105C8.38509 20.8856 6.64551 18.146 6.64551 15Z" fill="white"/>
<path d="M10.9545 23.1438C10.8152 23.1438 10.676 23.109 10.5503 23.0392C7.62798 21.4183 5.8125 18.3379 5.8125 15C5.8125 11.6621 7.62792 8.58156 10.5502 6.96078C10.8017 6.82134 11.1072 6.82134 11.3587 6.96078C14.281 8.58162 16.0964 11.6621 16.0964 15C16.0964 18.3379 14.281 21.4184 11.3587 23.0392C11.2329 23.109 11.0938 23.1438 10.9545 23.1438ZM10.9545 8.65926C8.79948 10.0366 7.47918 12.4248 7.47918 15C7.47918 17.5752 8.79936 19.9634 10.9545 21.3409C13.1095 19.9634 14.4298 17.5753 14.4298 15C14.4298 12.4247 13.1095 10.0366 10.9545 8.65926Z" fill="white"/>
<path d="M15.0003 3.33322C14.5401 3.33322 14.167 2.96015 14.167 2.4999V0.833322C14.167 0.373066 14.5401 0 15.0003 0C15.4605 0 15.8337 0.373066 15.8337 0.833322V2.49985C15.8337 2.9601 15.4606 3.33322 15.0003 3.33322Z" fill="white"/>
<path d="M15.0003 30.0001C14.5401 30.0001 14.167 29.627 14.167 29.1667V27.5002C14.167 27.04 14.5401 26.6669 15.0003 26.6669C15.4605 26.6669 15.8337 27.04 15.8337 27.5002V29.1667C15.8337 29.627 15.4606 30.0001 15.0003 30.0001Z" fill="white"/>
<path d="M6.1612 6.99441C5.94792 6.99441 5.73464 6.91311 5.57193 6.75033L4.39349 5.572C4.06806 5.24657 4.06806 4.71893 4.39349 4.39339C4.71892 4.0679 5.24655 4.06796 5.5721 4.39339L6.75052 5.57183C7.07596 5.89725 7.07596 6.42489 6.75052 6.75045C6.58774 6.91311 6.37444 6.99441 6.1612 6.99441Z" fill="white"/>
<path d="M25.0177 25.8508C24.8043 25.8508 24.5911 25.7694 24.4283 25.6066L23.2499 24.4282C22.9245 24.1028 22.9245 23.5751 23.2499 23.2496C23.5754 22.9241 24.1029 22.9241 24.4285 23.2496L25.607 24.428C25.9324 24.7535 25.9324 25.2811 25.607 25.6066C25.4441 25.7694 25.231 25.8508 25.0177 25.8508Z" fill="white"/>
<path d="M23.8392 6.99438C23.6258 6.99438 23.4127 6.91308 23.2499 6.7503C22.9245 6.42486 22.9245 5.89722 23.2499 5.57168L24.4283 4.39324C24.7538 4.06781 25.2814 4.06781 25.607 4.39324C25.9324 4.71867 25.9324 5.24631 25.607 5.57186L24.4285 6.7503C24.2658 6.91308 24.0526 6.99438 23.8392 6.99438Z" fill="white"/>
<path d="M4.98276 25.8508C4.76948 25.8508 4.55621 25.7694 4.39349 25.6066C4.06806 25.2812 4.06806 24.7536 4.39349 24.428L5.57193 23.2496C5.89736 22.9241 6.42502 22.9241 6.75052 23.2496C7.07608 23.575 7.07596 24.1027 6.75052 24.4282L5.57216 25.6067C5.40927 25.7694 5.19604 25.8508 4.98276 25.8508Z" fill="white"/>
<path d="M29.1668 15.8333H27.5003C27.0401 15.8333 26.667 15.4602 26.667 15C26.667 14.5397 27.0402 14.1666 27.5003 14.1666H29.1668C29.627 14.1666 30.0002 14.5397 30.0002 15C30.0002 15.4602 29.6271 15.8333 29.1668 15.8333Z" fill="white"/>
<path d="M2.49985 15.8333H0.833322C0.373066 15.8333 0 15.4602 0 15C0 14.5397 0.373066 14.1666 0.833322 14.1666H2.49985C2.9601 14.1666 3.33316 14.5397 3.33316 15C3.33316 15.4602 2.9601 15.8333 2.49985 15.8333Z" fill="white"/>
</g>
</g>
<defs>
<clipPath id="clip0_534_754">
<rect width="30" height="30" fill="white"/>
</clipPath>
</defs>
</svg>
