<svg width="30" height="30" viewBox="0 0 30 30" fill="none" xmlns="http://www.w3.org/2000/svg">
<g clip-path="url(#clip0_732_48)">
<mask id="mask0_732_48" style="mask-type:luminance" maskUnits="userSpaceOnUse" x="0" y="0" width="30" height="30">
<path d="M30 0H0V30H30V0Z" fill="white"/>
</mask>
<g mask="url(#mask0_732_48)">
<path d="M15.0001 24.1876C13.4426 24.1876 11.9038 23.7905 10.55 23.0392C7.62798 21.4184 5.8125 18.3379 5.8125 15C5.8125 11.6621 7.62792 8.58156 10.5502 6.96078C11.9038 6.20952 13.4426 5.81244 15.0001 5.81244C17.0105 5.81244 18.92 6.45012 20.5221 7.6566C22.071 8.82306 23.2325 10.4821 23.793 12.3284C23.9266 12.7688 23.678 13.2341 23.2376 13.3678C22.7973 13.5016 22.3318 13.2529 22.1981 12.8124C21.2299 9.62244 18.3373 7.47906 15.0002 7.47906C13.725 7.47906 12.4658 7.80378 11.359 8.41818C8.9658 9.7455 7.47924 12.2675 7.47924 15C7.47924 17.7325 8.9658 20.2544 11.3587 21.5817C12.4658 22.1962 13.7249 22.5209 15.0002 22.5209C18.3145 22.5209 21.2015 20.3963 22.1839 17.2341C22.3206 16.7947 22.7872 16.5491 23.227 16.6855C23.6665 16.8221 23.9122 17.2891 23.7757 17.7286C23.2064 19.5609 22.0427 21.206 20.499 22.3609C18.9014 23.5559 17 24.1876 15.0001 24.1876Z" fill="#FF2E47"/>
<circle cx="15" cy="15" r="7.5" fill="white"/>
<path d="M6.64575 15C6.64575 11.8541 8.38533 9.11442 10.9544 7.68948C13.5233 9.1143 15.263 11.854 15.263 15C15.263 18.146 13.5234 20.8856 10.9544 22.3105C8.38533 20.8856 6.64575 18.146 6.64575 15Z" fill="#FF2E47"/>
<path d="M10.9545 23.1438C10.8152 23.1438 10.676 23.109 10.5503 23.0392C7.62798 21.4183 5.8125 18.3379 5.8125 15C5.8125 11.6621 7.62792 8.58156 10.5502 6.96078C10.8017 6.82134 11.1072 6.82134 11.3587 6.96078C14.281 8.58162 16.0964 11.6621 16.0964 15C16.0964 18.3379 14.281 21.4184 11.3587 23.0392C11.2329 23.109 11.0938 23.1438 10.9545 23.1438ZM10.9545 8.65926C8.79948 10.0366 7.47918 12.4248 7.47918 15C7.47918 17.5752 8.79936 19.9634 10.9545 21.3409C13.1095 19.9634 14.4298 17.5753 14.4298 15C14.4298 12.4247 13.1095 10.0366 10.9545 8.65926Z" fill="#FF2E47"/>
<path d="M15.0001 3.33322C14.5398 3.33322 14.1667 2.96015 14.1667 2.4999V0.833322C14.1667 0.373066 14.5398 0 15.0001 0C15.4603 0 15.8334 0.373066 15.8334 0.833322V2.49985C15.8334 2.9601 15.4603 3.33322 15.0001 3.33322Z" fill="#FF2E47"/>
<path d="M15.0001 30C14.5398 30 14.1667 29.6269 14.1667 29.1667V27.5002C14.1667 27.0399 14.5398 26.6668 15.0001 26.6668C15.4603 26.6668 15.8334 27.0399 15.8334 27.5002V29.1667C15.8334 29.6269 15.4603 30 15.0001 30Z" fill="#FF2E47"/>
<path d="M6.16108 6.99438C5.9478 6.99438 5.73452 6.91308 5.5718 6.7503L4.39336 5.57197C4.06793 5.24654 4.06793 4.7189 4.39336 4.39336C4.7188 4.06787 5.24643 4.06793 5.57198 4.39336L6.7504 5.5718C7.07584 5.89722 7.07584 6.42486 6.7504 6.75042C6.58762 6.91308 6.37432 6.99438 6.16108 6.99438Z" fill="#FF2E47"/>
<path d="M25.0175 25.8507C24.8042 25.8507 24.591 25.7693 24.4282 25.6066L23.2498 24.4282C22.9244 24.1027 22.9244 23.5751 23.2498 23.2495C23.5753 22.9241 24.1028 22.9241 24.4284 23.2495L25.6069 24.428C25.9323 24.7534 25.9323 25.2811 25.6069 25.6066C25.444 25.7693 25.2308 25.8507 25.0175 25.8507Z" fill="#FF2E47"/>
<path d="M23.8391 6.99438C23.6257 6.99438 23.4125 6.91308 23.2498 6.7503C22.9244 6.42486 22.9244 5.89722 23.2498 5.57168L24.4282 4.39324C24.7537 4.06781 25.2812 4.06781 25.6069 4.39324C25.9323 4.71867 25.9323 5.24631 25.6069 5.57186L24.4284 6.7503C24.2657 6.91308 24.0524 6.99438 23.8391 6.99438Z" fill="#FF2E47"/>
<path d="M4.98264 25.8507C4.76936 25.8507 4.55608 25.7693 4.39336 25.6066C4.06793 25.2812 4.06793 24.7535 4.39336 24.428L5.5718 23.2495C5.89723 22.9241 6.4249 22.9241 6.7504 23.2495C7.07596 23.575 7.07584 24.1026 6.7504 24.4282L5.57204 25.6066C5.40914 25.7693 5.19592 25.8507 4.98264 25.8507Z" fill="#FF2E47"/>
<path d="M29.1667 15.8333H27.5002C27.04 15.8333 26.6669 15.4603 26.6669 15C26.6669 14.5397 27.0401 14.1667 27.5002 14.1667H29.1667C29.6269 14.1667 30 14.5397 30 15C30 15.4603 29.627 15.8333 29.1667 15.8333Z" fill="#FF2E47"/>
<path d="M2.49985 15.8333H0.833322C0.373066 15.8333 0 15.4603 0 15C0 14.5397 0.373066 14.1667 0.833322 14.1667H2.49985C2.9601 14.1667 3.33316 14.5397 3.33316 15C3.33316 15.4603 2.9601 15.8333 2.49985 15.8333Z" fill="#FF2E47"/>
</g>
</g>
<defs>
<clipPath id="clip0_732_48">
<rect width="30" height="30" fill="white"/>
</clipPath>
</defs>
</svg>
