<svg width="38" height="34" viewBox="0 0 38 34" fill="none" xmlns="http://www.w3.org/2000/svg">
<g clip-path="url(#clip0_508_11)">
<path d="M31.0828 11.1188C30.6833 10.9824 30.2809 10.8553 29.8757 10.7376C29.9429 10.4642 30.0049 10.1892 30.0617 9.91259C30.9757 5.46728 30.3781 1.88603 28.3382 0.707121C26.3851 -0.424129 23.182 0.754777 19.9507 3.57353C19.633 3.85165 19.3218 4.13811 19.0171 4.4329C18.814 4.23707 18.6057 4.0454 18.3921 3.8579C15.0054 0.843839 11.6109 -0.425691 9.57338 0.757121C7.62025 1.89071 7.03978 5.25712 7.86244 9.4704C7.94473 9.88707 8.03718 10.3019 8.13978 10.7149C7.65931 10.8517 7.19525 10.9977 6.7515 11.1524C2.78588 12.5392 0.249939 14.7134 0.249939 16.9681C0.249939 19.2977 2.97181 21.6337 7.10697 23.0501C7.44239 23.1642 7.78093 23.2701 8.1226 23.3681C8.01166 23.8102 7.91348 24.2574 7.82806 24.7095C7.04681 28.8501 7.65619 32.1368 9.60541 33.2634C11.6187 34.4267 14.996 33.2313 18.2882 30.3485C18.5486 30.1204 18.8091 29.8795 19.0695 29.6259C19.3986 29.9441 19.7372 30.253 20.0851 30.5524C23.2726 33.3009 26.4203 34.411 28.3663 33.2813C30.3781 32.1142 31.032 28.5829 30.1828 24.2868C30.1177 23.9587 30.0427 23.6238 29.9578 23.2821C30.1953 23.2118 30.4278 23.1392 30.6554 23.0642C34.9523 21.6368 37.7515 19.329 37.7515 16.9704C37.7499 14.7048 35.1328 12.5165 31.0828 11.1188ZM21.0046 4.78446C23.7726 2.36962 26.3601 1.4165 27.5398 2.09775C28.7953 2.82353 29.2835 5.75009 28.4945 9.58837C28.4424 9.83837 28.3861 10.0876 28.3257 10.336C26.6739 9.9603 24.9988 9.69513 23.3117 9.54228C22.3457 8.15077 21.2867 6.82614 20.1421 5.57743C20.4223 5.30556 20.7093 5.04124 21.0031 4.78446H21.0046ZM11.3226 18.8946C11.6617 19.5509 12.0161 20.1991 12.3859 20.8392C12.7624 21.4923 13.1549 22.1358 13.5632 22.7696C12.4023 22.6434 11.2487 22.4575 10.107 22.2126C10.4382 21.1407 10.846 20.0274 11.3226 18.8946ZM11.3226 15.1188C10.8538 14.0102 10.457 12.9196 10.1312 11.8665C11.2015 11.6267 12.3421 11.4306 13.5312 11.2821C13.1328 11.904 12.7494 12.535 12.3812 13.1751C12.013 13.8152 11.6593 14.4631 11.3203 15.1188H11.3226ZM12.1742 17.0071C12.6679 15.9774 13.1997 14.9675 13.7695 13.9774C14.3387 12.9878 14.9447 12.0209 15.5874 11.0767C16.7031 10.9923 17.8468 10.9477 19.0023 10.9477C20.1578 10.9477 21.3085 10.9923 22.4234 11.0774C23.0593 12.0196 23.6617 12.9832 24.2304 13.9681C24.7992 14.953 25.338 15.9582 25.8468 16.9837C25.3447 18.017 24.8072 19.0311 24.2343 20.0259C23.6661 21.0155 23.0671 21.9852 22.4374 22.9352C21.3242 23.0134 20.1718 23.0563 18.9999 23.0563C17.8281 23.0563 16.6976 23.0196 15.6046 22.9485C14.9572 22.0011 14.3463 21.03 13.7718 20.0352C13.1973 19.0405 12.664 18.0311 12.1718 17.0071H12.1742ZM25.621 20.8282C25.9986 20.173 26.3611 19.5092 26.7085 18.8368C27.1847 19.9166 27.6051 21.0201 27.9679 22.1431C26.8127 22.4032 25.6447 22.6027 24.4687 22.7407C24.8656 22.111 25.2497 21.4735 25.621 20.8282ZM26.6929 15.1196C26.3471 14.4608 25.9874 13.8097 25.614 13.1665C25.2494 12.5321 24.8695 11.9056 24.4742 11.2868C25.6703 11.4384 26.8179 11.6399 27.8937 11.886C27.5478 12.9833 27.147 14.0625 26.6929 15.1196ZM19.0179 6.72509C19.798 7.57751 20.5346 8.46875 21.2249 9.3954C19.7484 9.32509 18.2708 9.32509 16.7921 9.3954C17.521 8.43134 18.2671 7.53681 19.0179 6.72509ZM10.3796 2.1454C11.6343 1.41728 14.4085 2.4579 17.3328 5.05712C17.5195 5.22353 17.7078 5.39775 17.8953 5.57822C16.7448 6.82675 15.6784 8.15022 14.7031 9.53993C13.0197 9.69161 11.3479 9.95257 9.69838 10.3212C9.60307 9.93785 9.51713 9.55191 9.44057 9.16337C8.73353 5.55165 9.2015 2.829 10.3796 2.1454ZM8.55072 21.8212C8.23822 21.7321 7.92963 21.6355 7.62494 21.5313C5.79681 20.9063 4.28666 20.0907 3.24994 19.2024C2.32181 18.4063 1.8515 17.6118 1.8515 16.9681C1.8515 15.6001 3.88744 13.8548 7.28275 12.6712C7.70931 12.5227 8.13952 12.3871 8.57338 12.2642C9.07763 13.8847 9.68834 15.4702 10.4015 17.0102C9.67984 18.5716 9.06158 20.1787 8.55072 21.8212ZM17.2328 29.1392C15.7773 30.4142 14.3195 31.3181 13.0343 31.7735C11.8796 32.1821 10.9601 32.1938 10.4046 31.8727C9.22181 31.1892 8.72963 28.5493 9.40072 25.0087C9.48041 24.592 9.57156 24.1754 9.67416 23.7587C11.3402 24.1176 13.0287 24.3627 14.7281 24.4923C15.7129 25.8892 16.7881 27.2202 17.9468 28.4767C17.714 28.7056 17.4757 28.9259 17.2328 29.1392ZM19.0624 27.3251C18.3031 26.504 17.5453 25.5954 16.8062 24.6188C17.5244 24.647 18.2557 24.661 18.9999 24.661C19.764 24.661 20.5203 24.6446 21.2656 24.611C20.5778 25.5526 19.8424 26.4584 19.0624 27.3251ZM28.7906 29.5587C28.5671 30.7649 28.1179 31.5696 27.5624 31.8915C26.3804 32.5774 23.8531 31.686 21.1281 29.3352C20.8156 29.0665 20.5031 28.7782 20.1851 28.4759C21.3213 27.2145 22.3713 25.8782 23.3281 24.4759C25.0368 24.3311 26.7335 24.0688 28.4062 23.6907C28.4828 24.0001 28.5505 24.3032 28.6093 24.6001C28.9851 26.4985 29.039 28.2157 28.7906 29.5587ZM30.1499 21.5399C29.9453 21.6079 29.7343 21.6735 29.5203 21.7376C28.9958 20.1094 28.3612 18.5188 27.621 16.9767C28.3335 15.4551 28.9432 13.8875 29.446 12.2845C29.8296 12.3962 30.2023 12.5134 30.5609 12.6376C34.0312 13.8345 36.1484 15.6063 36.1484 16.9681C36.1484 18.4212 33.8617 20.3071 30.1499 21.5399Z" fill="#FF2E47"/>
<path d="M18.9999 20.3242C19.6648 20.3264 20.3154 20.1312 20.8693 19.7634C21.4232 19.3956 21.8554 18.8717 22.1114 18.258C22.3673 17.6444 22.4354 16.9686 22.307 16.3162C22.1786 15.6638 21.8596 15.0642 21.3902 14.5933C20.9208 14.1224 20.3222 13.8013 19.6703 13.6708C19.0183 13.5403 18.3423 13.6062 17.7278 13.8601C17.1134 14.1141 16.588 14.5446 16.2184 15.0973C15.8488 15.65 15.6515 16.2999 15.6515 16.9648C15.6506 17.4053 15.7365 17.8417 15.9043 18.249C16.0721 18.6563 16.3185 19.0265 16.6295 19.3385C16.9405 19.6504 17.3099 19.8981 17.7166 20.0672C18.1234 20.2364 18.5594 20.3237 18.9999 20.3242Z" fill="#FF2E47"/>
</g>
<defs>
<clipPath id="clip0_508_11">
<rect width="38" height="34" fill="white"/>
</clipPath>
</defs>
</svg>
