<svg width="69" height="38" viewBox="0 0 69 38" fill="none" xmlns="http://www.w3.org/2000/svg">
<g clip-path="url(#clip0_504_317)">
<path d="M16.601 30.2461L19.6216 31.5666C19.4593 32.6701 19.1223 33.7193 18.6605 34.6419C18.2361 35.4559 17.6744 36.089 17.0378 36.5051C16.3888 36.9212 15.565 37.1382 14.5664 37.1382C13.3557 37.1382 12.3571 36.885 11.5957 36.3785C10.8218 35.872 10.1603 34.9675 9.59862 33.6831C9.03693 32.3987 8.76233 30.7526 8.76233 28.7446C8.76233 26.0673 9.24912 24.0051 10.2352 22.576C11.2213 21.1469 12.6068 20.4233 14.4042 20.4233C15.8146 20.4233 16.913 20.8394 17.7243 21.6534C18.5232 22.4856 19.1223 23.7518 19.5217 25.4523L16.4762 26.4291C16.4013 26.0492 16.2889 25.6694 16.1391 25.3437C15.9519 24.9639 15.7148 24.6744 15.4277 24.4573C15.1406 24.2403 14.8161 24.1498 14.4915 24.1498C13.7052 24.1498 13.106 24.6021 12.6941 25.5246C12.3821 26.194 12.2198 27.2613 12.2198 28.7084C12.2198 30.4993 12.407 31.7294 12.7815 32.3987C13.156 33.0681 13.6802 33.3937 14.3667 33.3937C15.0282 33.3937 15.5275 33.1223 15.8645 32.5977C16.2015 32.0369 16.4512 31.2591 16.601 30.2461ZM23.6532 20.6947H27.0983V26.3568H30.8678V20.6947H34.3378V36.8669H30.8678V30.3184H27.0983V36.8669H23.6532V20.6947Z" fill="#FF2E47"/>
<path d="M60.1753 20.6946H63.6203V32.8871H69V36.8668H60.1628V20.6946H60.1753Z" fill="#FF2E47"/>
<path d="M48.979 11.089L50.2272 9.82274L51.7625 12.9884C52.0246 13.495 52.2243 14.0377 52.3741 14.6346C52.4615 15.0869 52.4365 15.5753 52.3117 16.0094C52.1494 16.5521 51.8873 17.0044 51.5378 17.33C51.1259 17.746 50.7764 17.9812 50.4768 18.0536C50.1898 18.1259 49.8902 18.0536 49.6156 17.8727C49.316 17.6556 49.0539 17.3481 48.8542 16.9501L49.9276 15.5029C50.015 15.7019 50.1273 15.8828 50.2522 16.0275C50.3395 16.118 50.4394 16.1722 50.5517 16.1722C50.6391 16.1722 50.7265 16.118 50.7889 16.0456C50.9137 15.9371 51.0011 15.72 50.9886 15.5029C50.9511 15.1954 50.8638 14.8879 50.7265 14.6527L48.979 11.089ZM52.7236 13.097L53.8594 11.7945C53.9843 12.0116 54.1465 12.1744 54.3213 12.2649C54.5709 12.3734 54.833 12.301 55.0452 12.0659C55.195 11.9212 55.3198 11.7222 55.3697 11.4689C55.4446 11.1433 55.3198 10.7815 55.0951 10.673C55.0577 10.6549 55.0203 10.6368 54.9828 10.6368C54.833 10.6187 54.5709 10.7091 54.184 10.9443C53.5474 11.3242 53.0481 11.4689 52.6737 11.4146C52.3117 11.3604 51.9747 11.089 51.775 10.6368C51.6252 10.3293 51.5503 9.96746 51.5378 9.60567C51.5378 9.1896 51.6127 8.77354 51.775 8.42983C52.0121 7.94141 52.2992 7.52535 52.6487 7.19973C53.1729 6.67513 53.6348 6.42188 54.0342 6.42188C54.4336 6.42188 54.8081 6.69322 55.1576 7.254L54.0342 8.53837C53.8095 8.12231 53.3851 8.03186 53.098 8.35748L53.0606 8.41174C52.9358 8.52028 52.8484 8.68309 52.7985 8.88208C52.761 9.0268 52.786 9.1896 52.8484 9.31623C52.8983 9.40668 52.9732 9.47904 53.0606 9.47904C53.1604 9.49713 53.3352 9.42477 53.5848 9.26196C54.2089 8.88208 54.6832 8.665 55.0078 8.59264C55.2824 8.52028 55.5695 8.55646 55.8316 8.71927C56.0687 8.86399 56.2684 9.11724 56.4057 9.42477C56.5805 9.78656 56.6803 10.2207 56.6928 10.673C56.7053 11.1433 56.6179 11.5955 56.4432 11.9935C56.2185 12.4819 55.9314 12.898 55.5944 13.2236C54.9079 13.911 54.3462 14.2005 53.8969 14.0919C53.4101 13.9834 53.0107 13.6216 52.7236 13.097Z" fill="#FF2E47"/>
<path d="M56.3781 19.7613C59.8465 15.9733 60.9161 9.55208 58.767 5.41906C56.618 1.28603 52.0641 1.00633 48.5957 4.79432C45.1274 8.5823 44.0578 15.0036 46.2069 19.1366C48.3559 23.2696 52.9098 23.5493 56.3781 19.7613Z" stroke="#FF2E47" stroke-width="4" stroke-miterlimit="10"/>
<path d="M35.6234 12.3009L38.9061 11.9934C38.981 12.7713 39.1183 13.3501 39.343 13.7662C39.705 14.4174 40.2042 14.7431 40.8658 14.7431C41.3526 14.7431 41.7395 14.5802 42.0016 14.2365C42.2513 13.9652 42.4011 13.531 42.4011 13.0788C42.4011 12.6446 42.2637 12.2286 42.0266 11.9572C41.777 11.6316 41.1903 11.306 40.2666 11.0166C38.7563 10.5281 37.6704 9.87692 37.0338 9.04479C36.3973 8.26693 36.0353 7.12728 36.0602 5.91527C36.0602 5.08314 36.235 4.25101 36.5595 3.5636C36.934 2.78574 37.4457 2.17069 38.0573 1.82699C38.7189 1.41092 39.6425 1.19385 40.8034 1.19385C42.2263 1.19385 43.3122 1.57373 44.0611 2.35159C44.8101 3.11136 45.2594 4.34146 45.3967 6.0238L42.1514 6.29515C42.064 5.57156 41.8893 5.04696 41.6022 4.70325C41.3151 4.35955 40.9407 4.19674 40.4539 4.19674C40.0545 4.19674 39.7549 4.32337 39.5552 4.55854C39.3679 4.77561 39.2431 5.10123 39.2556 5.46302C39.2556 5.73437 39.3555 5.98762 39.5052 6.15043C39.6675 6.36751 40.0544 6.5665 40.6661 6.74739C42.1764 7.21773 43.2498 7.68806 43.9114 8.17648C44.5729 8.6649 45.0472 9.26186 45.3343 9.96736C45.6339 10.691 45.7836 11.5231 45.7712 12.3733C45.7712 13.3863 45.5715 14.3993 45.172 15.2496C44.7601 16.136 44.186 16.8234 43.5119 17.2394C42.8005 17.6917 41.9018 17.9268 40.8283 17.9268C38.9311 17.9268 37.6205 17.4022 36.884 16.3349C36.1476 15.2677 35.7107 13.929 35.6234 12.3009ZM0.78636 17.6555V1.48328H6.54052C7.60148 1.48328 8.42529 1.60991 8.98697 1.88126C9.53618 2.13451 10.023 2.65912 10.3475 3.36461C10.7095 4.14247 10.8842 5.04696 10.8717 5.98762C10.9092 7.57952 10.3475 9.09906 9.3864 9.89501C9.01194 10.2025 8.60004 10.4196 8.17565 10.5281C8.4877 10.6548 8.79975 10.8719 9.07435 11.1251C9.28654 11.3784 9.46129 11.6678 9.62355 11.9753C9.81078 12.2828 9.97305 12.6266 10.1103 12.9883L11.7829 17.6736H7.8636L6.01628 12.6989C5.77912 12.0658 5.57941 11.6497 5.39219 11.4507C5.14255 11.1975 4.84298 11.0708 4.54342 11.0708H4.24385V17.6374H0.78636V17.6555ZM4.24385 8.03176H5.70423C6.01628 7.99558 6.31585 7.92323 6.61541 7.81469C6.84009 7.76042 7.0398 7.57952 7.1771 7.30818C7.51411 6.65695 7.46418 5.73437 7.05228 5.17359C6.8276 4.90224 6.39074 4.75752 5.76664 4.75752H4.24385V8.03176ZM0 31.5122L3.28274 31.2047C3.35763 31.9826 3.49493 32.5614 3.71961 32.9775C4.0691 33.6287 4.58086 33.9724 5.2424 33.9724C5.7292 33.9724 6.11614 33.8096 6.37826 33.4659C6.62789 33.1765 6.77768 32.7604 6.77768 32.3082C6.77768 31.874 6.64038 31.458 6.40322 31.1866C6.15358 30.861 5.56693 30.5354 4.63079 30.2459C3.12048 29.7575 2.03455 29.1063 1.39797 28.2742C0.761397 27.4963 0.399421 26.3567 0.424385 25.1446C0.424385 24.3125 0.599132 23.4804 0.923661 22.793C1.29812 22.0151 1.80988 21.4001 2.42149 21.0564C3.08303 20.6403 4.00669 20.4232 5.16751 20.4232C6.59045 20.4232 7.67637 20.8031 8.42529 21.581C9.1742 22.3588 9.61107 23.5708 9.74837 25.2532L6.50308 25.5245C6.4157 24.8009 6.24095 24.2763 5.95387 23.9326C5.67927 23.5889 5.29233 23.4261 4.80554 23.4442C4.40611 23.4442 4.10655 23.5708 3.90684 23.8241C3.70713 24.0412 3.59479 24.3668 3.60727 24.7286C3.60727 24.9999 3.70713 25.2532 3.85691 25.416C4.01918 25.6331 4.40611 25.8321 5.01773 26.0129C6.52804 26.4833 7.60148 26.9536 8.26302 27.442C8.92457 27.9305 9.39888 28.5274 9.68596 29.2329C9.98553 29.9565 10.1353 30.7886 10.1353 31.6208C10.1353 32.6338 9.92312 33.6287 9.53618 34.4789C9.12428 35.3653 8.55011 36.0527 7.87608 36.4688C7.16462 36.9211 6.26592 37.1562 5.19247 37.1562C3.29522 37.1562 1.98462 36.6316 1.24819 35.5643C0.511758 34.4789 0.0998553 33.1403 0 31.5122H0Z" fill="#FF2E47"/>
<path d="M33.8634 28.7808C33.8634 26.1397 34.3752 24.0775 35.3862 22.6122C36.3972 21.147 37.8202 20.4053 39.63 20.4053C41.4899 20.4053 42.9128 21.1289 43.9238 22.576C44.9349 24.0232 45.4341 26.0493 45.4341 28.6542C45.4341 30.5536 45.2095 32.0912 44.7726 33.3032C44.3482 34.4972 43.6867 35.474 42.8753 36.1252C42.0391 36.7946 41.0031 37.1383 39.7673 37.1383C38.5067 37.1383 37.4707 36.8488 36.6469 36.27C35.7981 35.6549 35.0991 34.6962 34.6373 33.5203C34.1255 32.254 33.8634 30.6802 33.8634 28.7808ZM37.3084 28.7989C37.3084 30.427 37.5206 31.6028 37.9325 32.3264C38.3444 33.0319 38.9186 33.3937 39.6425 33.3937C40.379 33.3937 40.9531 33.05 41.365 32.3445C41.7769 31.639 41.9766 30.3908 41.9766 28.5818C41.9766 27.0623 41.7645 25.9407 41.3401 25.2533C40.9157 24.5478 40.3415 24.2041 39.6176 24.2041C38.981 24.1679 38.3694 24.5659 37.945 25.2714C37.5206 25.9769 37.3084 27.1527 37.3084 28.7989ZM48.9665 28.7808C48.9665 26.1397 49.4783 24.0775 50.4893 22.6122C51.5003 21.147 52.9233 20.4053 54.7332 20.4053C56.593 20.4053 58.0284 21.1289 59.0269 22.576C60.0255 24.0232 60.5372 26.0493 60.5372 28.6542C60.5372 30.5536 60.3126 32.0912 59.8757 33.3032C59.4513 34.4972 58.7898 35.474 57.9785 36.1252C57.1422 36.7946 56.1062 37.1383 54.8705 37.1383C53.6098 37.1383 52.5738 36.8488 51.75 36.27C50.9012 35.6549 50.2022 34.6962 49.7404 33.5203C49.2286 32.254 48.9665 30.6802 48.9665 28.7808ZM52.4115 28.7989C52.4115 30.427 52.6237 31.6028 53.0356 32.3264C53.4475 33.0319 54.0217 33.3937 54.7456 33.3937C55.4821 33.3937 56.0562 33.05 56.4681 32.3445C56.88 31.639 57.0798 30.3908 57.0798 28.5818C57.0798 27.0623 56.8676 25.9407 56.4432 25.2533C56.0188 24.5478 55.4446 24.2041 54.7207 24.2041C54.0841 24.1679 53.46 24.5659 53.0481 25.2714C52.6237 25.9769 52.4115 27.1527 52.4115 28.7989Z" fill="#FF2E47"/>
</g>
<defs>
<clipPath id="clip0_504_317">
<rect width="69" height="37.1382" fill="white"/>
</clipPath>
</defs>
</svg>
