<svg width="40" height="40" viewBox="0 0 40 40" fill="none" xmlns="http://www.w3.org/2000/svg">
<g clip-path="url(#clip0_502_223)">
<mask id="mask0_502_223" style="mask-type:luminance" maskUnits="userSpaceOnUse" x="0" y="0" width="40" height="40">
<path d="M40 0H0V40H40V0Z" fill="white"/>
</mask>
<g mask="url(#mask0_502_223)">
<path d="M20.0002 32.2501C17.9234 32.2501 15.8717 31.7206 14.0667 30.7188C10.1706 28.5579 7.75 24.4504 7.75 20C7.75 15.5495 10.1706 11.442 14.067 9.281C15.8717 8.27932 17.9234 7.74988 20.0002 7.74988C22.6807 7.74988 25.2266 8.60012 27.3628 10.2088C29.428 11.764 30.9767 13.9761 31.724 16.4378C31.9022 17.025 31.5706 17.6454 30.9834 17.8237C30.3964 18.002 29.7758 17.6705 29.5974 17.0832C28.3065 12.8299 24.4497 9.97204 20.0002 9.97204C18.3 9.97204 16.6211 10.405 15.1453 11.2242C11.9544 12.994 9.97232 16.3566 9.97232 20C9.97232 23.6433 11.9544 27.0059 15.145 28.7756C16.621 29.5949 18.2998 30.0279 20.0002 30.0279C24.4194 30.0279 28.2686 27.195 29.5786 22.9788C29.7608 22.3929 30.383 22.0654 30.9694 22.2473C31.5554 22.4294 31.883 23.052 31.7009 23.6381C30.9418 26.0812 29.3903 28.2746 27.332 29.8145C25.2019 31.4079 22.6667 32.2501 20.0002 32.2501Z" fill="white"/>
<path d="M8.86096 20C8.86096 15.8056 11.1804 12.1526 14.6058 10.2527C18.031 12.1524 20.3506 15.8054 20.3506 20C20.3506 24.1947 18.0312 27.8475 14.6058 29.7474C11.1804 27.8476 8.86096 24.1947 8.86096 20Z" fill="white"/>
<path d="M14.606 30.8584C14.4203 30.8584 14.2347 30.812 14.067 30.719C10.1706 28.5578 7.75 24.4505 7.75 20C7.75 15.5495 10.1706 11.4421 14.067 9.28104C14.4022 9.09512 14.8096 9.09512 15.1449 9.28104C19.0414 11.4422 21.4618 15.5494 21.4618 20C21.4618 24.4506 19.0414 28.5579 15.145 30.719C14.9772 30.812 14.7917 30.8584 14.606 30.8584ZM14.606 11.5457C11.7326 13.3822 9.97224 16.5664 9.97224 20C9.97224 23.4336 11.7325 26.6178 14.606 28.4545C17.4794 26.6179 19.2398 23.4338 19.2398 20C19.2398 16.5662 17.4794 13.3822 14.606 11.5457Z" fill="white"/>
<path d="M20.0002 4.4443C19.3865 4.4443 18.889 3.94687 18.889 3.3332V1.1111C18.889 0.497422 19.3865 0 20.0002 0C20.6138 0 21.1113 0.497422 21.1113 1.1111V3.33313C21.1113 3.9468 20.6138 4.4443 20.0002 4.4443Z" fill="white"/>
<path d="M20.0002 40C19.3865 40 18.889 39.5026 18.889 38.8889V36.6669C18.889 36.0532 19.3865 35.5558 20.0002 35.5558C20.6138 35.5558 21.1113 36.0532 21.1113 36.6669V38.8889C21.1113 39.5026 20.6138 40 20.0002 40Z" fill="white"/>
<path d="M8.21485 9.32584C7.93048 9.32584 7.64611 9.21744 7.42915 9.0004L5.8579 7.42929C5.42399 6.99539 5.42399 6.29187 5.8579 5.85781C6.29181 5.42382 6.99532 5.4239 7.42939 5.85781L9.00061 7.42906C9.43453 7.86296 9.43453 8.56648 9.00061 9.00056C8.78357 9.21744 8.49917 9.32584 8.21485 9.32584Z" fill="white"/>
<path d="M33.3566 34.4676C33.0721 34.4676 32.7879 34.3592 32.5708 34.1421L30.9996 32.5709C30.5657 32.137 30.5657 31.4335 30.9996 30.9994C31.4336 30.5655 32.1369 30.5655 32.5711 30.9994L34.1424 32.5707C34.5763 33.0046 34.5763 33.7081 34.1424 34.1421C33.9252 34.3592 33.641 34.4676 33.3566 34.4676Z" fill="white"/>
<path d="M31.7853 9.32584C31.5008 9.32584 31.2166 9.21744 30.9996 9.0004C30.5657 8.56648 30.5657 7.86297 30.9996 7.4289L32.5708 5.85765C33.0048 5.42375 33.7082 5.42375 34.1424 5.85765C34.5763 6.29156 34.5763 6.99508 34.1424 7.42914L32.5711 9.0004C32.3541 9.21744 32.0698 9.32584 31.7853 9.32584Z" fill="white"/>
<path d="M6.6436 34.4676C6.35923 34.4676 6.07486 34.3592 5.8579 34.1421C5.42399 33.7083 5.42399 33.0048 5.8579 32.5707L7.42915 30.9994C7.86306 30.5655 8.56661 30.5655 9.00061 30.9994C9.43469 31.4333 9.43453 32.1368 9.00061 32.5709L7.42947 34.1422C7.21227 34.3592 6.92798 34.4676 6.6436 34.4676Z" fill="white"/>
<path d="M38.8889 21.1112H36.6669C36.0533 21.1112 35.5558 20.6137 35.5558 20C35.5558 19.3864 36.0534 18.8889 36.6669 18.8889H38.8889C39.5025 18.8889 40 19.3864 40 20C40 20.6137 39.5026 21.1112 38.8889 21.1112Z" fill="white"/>
<path d="M3.33313 21.1112H1.1111C0.497422 21.1112 0 20.6137 0 20C0 19.3864 0.497422 18.8889 1.1111 18.8889H3.33313C3.9468 18.8889 4.44422 19.3864 4.44422 20C4.44422 20.6137 3.9468 21.1112 3.33313 21.1112Z" fill="white"/>
</g>
</g>
<defs>
<clipPath id="clip0_502_223">
<rect width="40" height="40" fill="white"/>
</clipPath>
</defs>
</svg>
