<svg width="36" height="38" viewBox="0 0 36 38" fill="none" xmlns="http://www.w3.org/2000/svg">
<path d="M17.9844 1.03494C8.32422 1.03082 0.5 9.28559 0.5 19.4742C0.5 27.531 5.39453 34.3798 12.2109 36.895C13.1289 37.1382 12.9883 36.4497 12.9883 35.9796V32.7841C7.6875 33.4397 7.47266 29.737 7.11719 29.1185C6.39844 27.8238 4.69922 27.4939 5.20703 26.8754C6.41406 26.2198 7.64453 27.0404 9.07031 29.2628C10.1016 30.875 12.1133 30.6029 13.1328 30.3349C13.3555 29.3659 13.832 28.5 14.4883 27.8279C8.99609 26.7888 6.70703 23.2511 6.70703 19.0454C6.70703 17.0043 7.34375 15.1283 8.59375 13.615C7.79688 11.1204 8.66797 8.98459 8.78516 8.6671C11.0547 8.45269 13.4141 10.3824 13.5977 10.5349C14.8867 10.168 16.3594 9.97418 18.0078 9.97418C19.6641 9.97418 21.1406 10.1762 22.4414 10.5473C22.8828 10.1927 25.0703 8.53516 27.1797 8.7372C27.293 9.05469 28.1445 11.1411 27.3945 13.6026C28.6602 15.12 29.3047 17.0126 29.3047 19.0577C29.3047 23.2717 27 26.8136 21.4922 27.8362C21.9639 28.3259 22.3385 28.9099 22.5941 29.5541C22.8496 30.1984 22.981 30.8899 22.9805 31.5883V36.227C23.0117 36.5981 22.9805 36.9651 23.5664 36.9651C30.4844 34.5035 35.4648 27.6053 35.4648 19.4783C35.4648 9.28559 27.6367 1.03494 17.9844 1.03494V1.03494Z" fill="#FF2E47"/>
</svg>
