<svg width="35" height="37" viewBox="0 0 35 37" fill="none" xmlns="http://www.w3.org/2000/svg">
<g clip-path="url(#clip0_510_283)">
<path fill-rule="evenodd" clip-rule="evenodd" d="M18.9538 16.6482V16.5942C18.9433 16.6123 18.9289 16.6305 18.9198 16.6482H18.9538Z" fill="white"/>
<path fill-rule="evenodd" clip-rule="evenodd" d="M0 0.0556641V37.0001H35V0.0556641H0ZM10.8863 30.7481H5.69354V14.2574H10.8863V30.7481ZM8.28992 12.0067H8.25562C6.51369 12.0067 5.38462 10.7399 5.38462 9.15658C5.38462 7.5385 6.54669 6.30764 8.32392 6.30764C10.1015 6.30764 11.1939 7.5385 11.2279 9.15658C11.2279 10.7399 10.1015 12.0067 8.28992 12.0067ZM29.6154 30.7481H24.4212V21.9256C24.4212 19.7096 23.6708 18.197 21.7908 18.197C20.3552 18.197 19.502 19.2155 19.1262 20.202C18.9895 20.5544 18.9538 21.0442 18.9538 21.5384V30.7482H13.7587C13.7587 30.7482 13.8283 15.8046 13.7587 14.2575H18.9538V16.5943C19.6441 15.4732 20.8758 13.8704 23.6351 13.8704C27.0533 13.8704 29.6154 16.2267 29.6154 21.2916V30.7481Z" fill="white"/>
</g>
<defs>
<clipPath id="clip0_510_283">
<rect y="0.0556641" width="35" height="36.9444" rx="5" fill="white"/>
</clipPath>
</defs>
</svg>
