<svg width="35" height="37" viewBox="0 0 35 37" fill="none" xmlns="http://www.w3.org/2000/svg">
<g clip-path="url(#clip0_510_445)">
<path fill-rule="evenodd" clip-rule="evenodd" d="M18.9538 16.6481V16.5941C18.9433 16.6122 18.9289 16.6303 18.9198 16.6481H18.9538Z" fill="#FF2E47"/>
<path fill-rule="evenodd" clip-rule="evenodd" d="M0 0.055603V37H35V0.055603H0ZM10.8863 30.7481H5.69354V14.2574H10.8863V30.7481ZM8.28992 12.0066H8.25562C6.51369 12.0066 5.38462 10.7399 5.38462 9.15652C5.38462 7.53844 6.54669 6.30758 8.32392 6.30758C10.1015 6.30758 11.1939 7.53844 11.2279 9.15652C11.2279 10.7399 10.1015 12.0066 8.28992 12.0066ZM29.6154 30.7481H24.4212V21.9255C24.4212 19.7096 23.6708 18.1969 21.7908 18.1969C20.3552 18.1969 19.502 19.2154 19.1262 20.2019C18.9895 20.5543 18.9538 21.0442 18.9538 21.5383V30.7482H13.7587C13.7587 30.7482 13.8283 15.8045 13.7587 14.2575H18.9538V16.5942C19.6441 15.4731 20.8758 13.8703 23.6351 13.8703C27.0533 13.8703 29.6154 16.2266 29.6154 21.2915V30.7481Z" fill="#FF2E47"/>
</g>
<defs>
<clipPath id="clip0_510_445">
<rect y="0.055603" width="35" height="36.9444" rx="5" fill="white"/>
</clipPath>
</defs>
</svg>
