<svg width="38" height="38" viewBox="0 0 38 38" fill="none" xmlns="http://www.w3.org/2000/svg">
<path d="M20.5833 6.33333C19.7089 6.33333 19 7.04222 19 7.91667C19 8.79111 19.7089 9.5 20.5833 9.5C22.5986 9.5 24.1549 10.1648 25.2033 11.2133C26.2518 12.2619 26.9167 13.8181 26.9167 15.8333C26.9167 16.7078 27.6255 17.4167 28.5 17.4167C29.3745 17.4167 30.0833 16.7078 30.0833 15.8333C30.0833 13.0985 29.1648 10.6965 27.4425 8.97416C25.7201 7.25184 23.3181 6.33333 20.5833 6.33333Z" fill="#FF2E47"/>
<path d="M7.93885 12.6764C8.11978 11.2455 9.97941 9.30072 11.4552 9.51651L11.4529 9.51416C12.6865 9.74857 13.6993 11.6053 14.3668 12.8289C14.4764 13.0299 14.5767 13.2139 14.6672 13.3707C15.1215 14.1772 14.8265 14.9943 14.4029 15.3391C14.3539 15.3786 14.3025 15.4194 14.2497 15.4613C13.686 15.9089 12.9535 16.4903 13.125 17.0737C13.4584 18.2083 17.4167 22.1667 19.3636 23.2919C19.9597 23.6365 20.4231 22.9674 20.8201 22.3943C20.9138 22.259 21.0039 22.129 21.0911 22.0189C21.4227 21.5762 22.2405 21.3117 23.0451 21.7487C24.2469 22.4485 25.379 23.2619 26.4259 24.1775C26.9487 24.6145 27.0714 25.2603 26.7091 25.9429C26.071 27.1451 24.2255 28.7305 22.8858 28.4083C20.546 27.8458 11.0834 24.1775 8.04388 13.5502C7.88472 13.0821 7.91107 12.885 7.93391 12.714L7.93885 12.6764Z" fill="#FF2E47"/>
<path d="M20.5833 11.0833C19.7089 11.0833 19 11.7922 19 12.6667C19 13.5411 19.7089 14.25 20.5833 14.25C20.8601 14.25 21.2692 14.4043 21.6408 14.7758C22.0123 15.1474 22.1667 15.5566 22.1667 15.8333C22.1667 16.7078 22.8755 17.4167 23.75 17.4167C24.6245 17.4167 25.3333 16.7078 25.3333 15.8333C25.3333 14.5267 24.696 13.3526 23.88 12.5367C23.0641 11.7207 21.8899 11.0833 20.5833 11.0833Z" fill="#FF2E47"/>
<path fill-rule="evenodd" clip-rule="evenodd" d="M11.9026 37.7327C11.9476 37.7576 11.9939 37.7802 12.0411 37.8005C12.9004 38.1701 13.9611 37.345 16.0826 35.695L18.2083 34.0417C22.465 34.1826 26.1472 33.624 28.994 32.6279C32.1776 31.5139 34.6807 29.0108 35.7947 25.8272C37.3299 21.4399 37.3299 13.3931 35.7947 9.0059C34.6807 5.82226 32.1776 3.31914 28.994 2.20512C23.9247 0.431309 13.9808 0.464399 9.00611 2.20512C5.82245 3.31914 3.31934 5.82226 2.20533 9.0059C0.670165 13.3931 0.670165 21.4399 2.20533 25.8272C3.31934 29.0108 5.82245 31.5139 9.00611 32.6279C9.63067 32.8464 10.3292 33.0861 11.0833 33.25C11.0833 35.9375 11.0833 37.2813 11.9026 37.7327ZM14.25 33.1086V31.3356C14.25 30.9632 13.9903 30.6413 13.6261 30.5634C12.4198 30.3055 11.2207 30.0479 10.052 29.6389C7.77795 28.8433 5.99002 27.0552 5.19429 24.7812C4.58964 23.0532 4.22062 20.3384 4.22062 17.4165C4.22062 14.4947 4.58964 11.7798 5.19429 10.0518C5.99002 7.77776 7.77795 5.98981 10.052 5.19409C12.0591 4.49179 15.3855 4.0578 18.968 4.05384C22.5502 4.04988 25.8972 4.47645 27.9481 5.19409C30.222 5.98981 32.0101 7.77776 32.8057 10.0518C33.4104 11.7798 33.7795 14.4947 33.7795 17.4165C33.7795 20.3384 33.4104 23.0532 32.8057 24.7812C32.0101 27.0552 30.222 28.8433 27.9481 29.6389C24.5729 30.8199 20.9934 30.9526 17.4545 30.8478C17.2696 30.8424 17.0883 30.9011 16.9423 31.0146L14.25 33.1086Z" fill="#FF2E47"/>
</svg>
