<svg width="38" height="38" viewBox="0 0 38 38" fill="none" xmlns="http://www.w3.org/2000/svg">
<path d="M20.5833 6.33325C19.7089 6.33325 19 7.04214 19 7.91659C19 8.79103 19.7089 9.49992 20.5833 9.49992C22.5986 9.49992 24.1549 10.1647 25.2033 11.2133C26.2518 12.2618 26.9167 13.8181 26.9167 15.8333C26.9167 16.7077 27.6255 17.4166 28.5 17.4166C29.3745 17.4166 30.0833 16.7077 30.0833 15.8333C30.0833 13.0984 29.1648 10.6964 27.4425 8.97408C25.7201 7.25176 23.3181 6.33325 20.5833 6.33325Z" fill="white"/>
<path d="M7.93879 12.6764C8.11972 11.2455 9.97935 9.30072 11.4552 9.51651L11.4528 9.51416C12.6864 9.74857 13.6992 11.6053 14.3667 12.8289C14.4763 13.0299 14.5767 13.2139 14.6672 13.3707C15.1214 14.1772 14.8265 14.9943 14.4028 15.3391C14.3538 15.3786 14.3025 15.4194 14.2496 15.4613C13.6859 15.9089 12.9534 16.4903 13.1249 17.0737C13.4583 18.2083 17.4166 22.1667 19.3635 23.2919C19.9596 23.6365 20.4231 22.9674 20.82 22.3943C20.9137 22.259 21.0038 22.129 21.0911 22.0189C21.4226 21.5762 22.2404 21.3117 23.0451 21.7487C24.2468 22.4485 25.3789 23.2619 26.4258 24.1775C26.9486 24.6145 27.0713 25.2603 26.7091 25.9429C26.071 27.1451 24.2254 28.7305 22.8858 28.4083C20.5459 27.8458 11.0833 24.1775 8.04381 13.5502C7.88466 13.0821 7.911 12.885 7.93385 12.714L7.93879 12.6764Z" fill="white"/>
<path d="M20.5833 11.0833C19.7089 11.0833 19 11.7921 19 12.6666C19 13.541 19.7089 14.2499 20.5833 14.2499C20.8601 14.2499 21.2692 14.4042 21.6408 14.7758C22.0123 15.1473 22.1667 15.5565 22.1667 15.8333C22.1667 16.7077 22.8755 17.4166 23.75 17.4166C24.6245 17.4166 25.3333 16.7077 25.3333 15.8333C25.3333 14.5266 24.696 13.3525 23.88 12.5366C23.0641 11.7206 21.8899 11.0833 20.5833 11.0833Z" fill="white"/>
<path fill-rule="evenodd" clip-rule="evenodd" d="M11.9026 37.7328C11.9476 37.7577 11.9939 37.7803 12.0411 37.8006C12.9004 38.1701 13.9611 37.345 16.0826 35.695L18.2083 34.0417C22.465 34.1826 26.1472 33.624 28.994 32.628C32.1776 31.5139 34.6807 29.0108 35.7947 25.8272C37.3299 21.44 37.3299 13.3932 35.7947 9.00597C34.6807 5.82233 32.1776 3.3192 28.994 2.20519C23.9247 0.431374 13.9808 0.464464 9.00611 2.20519C5.82245 3.3192 3.31934 5.82233 2.20533 9.00597C0.670165 13.3932 0.670165 21.44 2.20533 25.8272C3.31934 29.0108 5.82245 31.5139 9.00611 32.628C9.63067 32.8465 10.3292 33.0862 11.0833 33.2501C11.0833 35.9376 11.0833 37.2814 11.9026 37.7328ZM14.25 33.1087V31.3357C14.25 30.9633 13.9903 30.6414 13.6261 30.5635C12.4198 30.3055 11.2207 30.0479 10.052 29.639C7.77795 28.8433 5.99002 27.0553 5.19429 24.7813C4.58964 23.0532 4.22062 20.3385 4.22062 17.4166C4.22062 14.4947 4.58964 11.7799 5.19429 10.0519C5.99002 7.77782 7.77795 5.98988 10.052 5.19416C12.0591 4.49185 15.3855 4.05786 18.968 4.0539C22.5502 4.04994 25.8972 4.47651 27.9481 5.19416C30.222 5.98988 32.0101 7.77782 32.8057 10.0519C33.4104 11.7799 33.7795 14.4947 33.7795 17.4166C33.7795 20.3385 33.4104 23.0532 32.8057 24.7813C32.0101 27.0553 30.222 28.8433 27.9481 29.639C24.5729 30.82 20.9934 30.9526 17.4545 30.8478C17.2696 30.8424 17.0883 30.9012 16.9423 31.0147L14.25 33.1087Z" fill="white"/>
</svg>
