<svg width="28" height="28" viewBox="0 0 28 28" fill="none" xmlns="http://www.w3.org/2000/svg">
<path fill-rule="evenodd" clip-rule="evenodd" d="M13.4261 12.5753C13.4311 12.5753 13.4351 12.5713 13.4351 12.5664C13.4351 12.5573 13.4222 12.5533 13.417 12.5608C13.4167 12.5612 13.4165 12.5616 13.4162 12.562C13.4122 12.5679 13.4165 12.5753 13.4236 12.5753H13.4261Z" fill="#FF2E47"/>
<path fill-rule="evenodd" clip-rule="evenodd" d="M10 0C4.47715 0 0 4.47715 0 10V18C0 23.5228 4.47715 28 10 28H18C23.5228 28 28 23.5228 28 18V10C28 4.47715 23.5228 0 18 0H10ZM8.70905 21.1846C8.70905 22.3317 7.77909 23.2617 6.63194 23.2617C5.48478 23.2617 4.55483 22.3317 4.55483 21.1846V12.8406C4.55483 11.6934 5.48478 10.7634 6.63194 10.7634C7.77909 10.7634 8.70905 11.6934 8.70905 12.8406V21.1846ZM6.63194 9.0576H6.60449C5.21095 9.0576 4.30769 8.09754 4.30769 6.89754C4.30769 5.6712 5.23735 4.73834 6.65914 4.73834C8.08123 4.73834 8.95514 5.6712 8.98234 6.89754C8.98234 8.09754 8.08123 9.0576 6.63194 9.0576ZM23.6923 21.184C23.6923 22.3315 22.7621 23.2617 21.6146 23.2617C20.4672 23.2617 19.537 22.3315 19.537 21.184V16.5751C19.537 14.8956 18.9366 13.7492 17.4327 13.7492C16.2841 13.7492 15.6016 14.5211 15.3009 15.2688C15.1916 15.5359 15.1631 15.9071 15.1631 16.2817V21.1888C15.1631 22.3336 14.235 23.2617 13.0901 23.2617C11.9413 23.2617 11.0114 22.3308 11.0159 21.182C11.0249 18.8939 11.0365 15.2309 11.0296 12.8876C11.0263 11.7294 11.9761 10.7635 13.1343 10.7635H14.7582C14.9818 10.7635 15.1631 10.9448 15.1631 11.1684C15.1631 11.5715 15.7326 11.7556 16.0325 11.4863C16.6494 10.9325 17.5461 10.4701 18.9081 10.4701C21.6426 10.4701 23.6923 12.2559 23.6923 16.0946V21.184Z" fill="#FF2E47"/>
</svg>
