<svg width="25" height="37" viewBox="0 0 25 37" fill="none" xmlns="http://www.w3.org/2000/svg">
<path d="M12.4995 0C5.60718 0 0 5.608 0 12.5005C0 19.135 11.341 34.6358 11.8239 35.2922L12.2745 35.9055C12.3272 35.9776 12.4112 36.0197 12.4995 36.0197C12.5891 36.0197 12.6725 35.9776 12.7257 35.9055L13.1761 35.2922C13.6593 34.6358 25 19.135 25 12.5005C25 5.608 19.3919 0 12.4995 0ZM12.4995 8.02282C14.969 8.02282 16.9771 10.031 16.9771 12.5005C16.9771 14.9686 14.9689 16.9781 12.4995 16.9781C10.0314 16.9781 8.02181 14.9686 8.02181 12.5005C8.02181 10.031 10.0313 8.02282 12.4995 8.02282Z" fill="#FF2E47"/>
</svg>
