<svg width="28" height="28" viewBox="0 0 28 28" fill="none" xmlns="http://www.w3.org/2000/svg">
<g clip-path="url(#clip0_510_315)">
<path d="M15.1667 4.66675C14.5223 4.66675 14 5.18909 14 5.83341C14 6.47774 14.5223 7.00008 15.1667 7.00008C16.6516 7.00008 17.7983 7.48995 18.5709 8.26254C19.3435 9.03513 19.8333 10.1819 19.8333 11.6667C19.8333 12.3111 20.3556 12.8334 21 12.8334C21.6443 12.8334 22.1667 12.3111 22.1667 11.6667C22.1667 9.65162 21.4899 7.8817 20.2208 6.61262C18.9517 5.34354 17.1817 4.66675 15.1667 4.66675Z" fill="#FF2E47"/>
<path d="M5.84965 9.34049C5.98296 8.28613 7.35321 6.85316 8.44067 7.01217L8.43893 7.01043C9.34791 7.18316 10.0942 8.55126 10.586 9.45287C10.6668 9.60099 10.7407 9.73652 10.8074 9.85209C11.1421 10.4464 10.9248 11.0484 10.6126 11.3025C10.5765 11.3316 10.5387 11.3616 10.4997 11.3925C10.0844 11.7223 9.54464 12.1507 9.67098 12.5806C9.91665 13.4167 12.8333 16.3333 14.2678 17.1625C14.7071 17.4163 15.0486 16.9233 15.3411 16.5011C15.4101 16.4013 15.4765 16.3056 15.5408 16.2245C15.7851 15.8983 16.3877 15.7033 16.9806 16.0253C17.8661 16.541 18.7002 17.1403 19.4716 17.815C19.8569 18.137 19.9473 18.6129 19.6804 19.1158C19.2102 20.0017 17.8503 21.1699 16.8632 20.9325C15.1391 20.5179 8.16665 17.815 5.92703 9.98435C5.80976 9.63942 5.82917 9.49424 5.84601 9.36823L5.84965 9.34049Z" fill="#FF2E47"/>
<path d="M15.1667 8.16675C14.5223 8.16675 14 8.68909 14 9.33341C14 9.97774 14.5223 10.5001 15.1667 10.5001C15.3706 10.5001 15.6721 10.6138 15.9459 10.8875C16.2196 11.1613 16.3333 11.4628 16.3333 11.6667C16.3333 12.3111 16.8557 12.8334 17.5 12.8334C18.1444 12.8334 18.6667 12.3111 18.6667 11.6667C18.6667 10.704 18.1971 9.83886 17.5958 9.23762C16.9946 8.63639 16.1294 8.16675 15.1667 8.16675Z" fill="#FF2E47"/>
<path fill-rule="evenodd" clip-rule="evenodd" d="M8.77034 27.8029C8.80354 27.8213 8.83761 27.8379 8.87243 27.8529C9.50558 28.1252 10.2872 27.5172 11.8503 26.3014L13.4167 25.0832C16.5532 25.187 19.2664 24.7754 21.364 24.0415C23.7098 23.2206 25.5542 21.3762 26.3751 19.0304C27.5063 15.7977 27.5063 9.86851 26.3751 6.63581C25.5542 4.28997 23.7098 2.44556 21.364 1.62471C17.6287 0.317688 10.3017 0.34207 6.63609 1.62471C4.29024 2.44556 2.44584 4.28997 1.62499 6.63581C0.493819 9.86851 0.493819 15.7977 1.62499 19.0304C2.44584 21.3762 4.29024 23.2206 6.63609 24.0415C7.09629 24.2025 7.61102 24.3791 8.16669 24.4999C8.16669 26.4802 8.16669 27.4703 8.77034 27.8029ZM10.5 24.3957V23.0893C10.5 22.8149 10.3087 22.5777 10.0403 22.5203C9.15144 22.3302 8.26791 22.1404 7.40674 21.8391C5.73113 21.2528 4.41371 19.9353 3.82739 18.2597C3.38185 16.9864 3.10995 14.9861 3.10995 12.8331C3.10995 10.6802 3.38185 8.67973 3.82739 7.40646C4.41371 5.73086 5.73113 4.41343 7.40674 3.82711C8.88565 3.30962 11.3367 2.98984 13.9765 2.98692C16.6159 2.984 19.0821 3.29831 20.5933 3.82711C22.2689 4.41343 23.5864 5.73086 24.1727 7.40646C24.6182 8.67973 24.8902 10.6802 24.8902 12.8331C24.8902 14.9861 24.6182 16.9864 24.1727 18.2597C23.5864 19.9353 22.2689 21.2528 20.5933 21.8391C18.1063 22.7093 15.4689 22.807 12.8612 22.7298C12.725 22.7258 12.5914 22.7691 12.4838 22.8528L10.5 24.3957Z" fill="#FF2E47"/>
</g>
<defs>
<clipPath id="clip0_510_315">
<rect width="28" height="28" fill="white"/>
</clipPath>
</defs>
</svg>
