<svg width="36" height="38" viewBox="0 0 36 38" fill="none" xmlns="http://www.w3.org/2000/svg">
<path d="M17.9844 1.03491C8.32422 1.03079 0.5 9.28556 0.5 19.4741C0.5 27.531 5.39453 34.3797 12.2109 36.8949C13.1289 37.1382 12.9883 36.4496 12.9883 35.9796V32.784C7.6875 33.4396 7.47266 29.737 7.11719 29.1185C6.39844 27.8238 4.69922 27.4939 5.20703 26.8754C6.41406 26.2198 7.64453 27.0403 9.07031 29.2628C10.1016 30.875 12.1133 30.6028 13.1328 30.3348C13.3555 29.3659 13.832 28.5 14.4883 27.8279C8.99609 26.7888 6.70703 23.2511 6.70703 19.0453C6.70703 17.0043 7.34375 15.1282 8.59375 13.615C7.79688 11.1204 8.66797 8.98457 8.78516 8.66707C11.0547 8.45266 13.4141 10.3824 13.5977 10.5349C14.8867 10.1679 16.3594 9.97415 18.0078 9.97415C19.6641 9.97415 21.1406 10.1762 22.4414 10.5473C22.8828 10.1927 25.0703 8.53513 27.1797 8.73717C27.293 9.05466 28.1445 11.141 27.3945 13.6026C28.6602 15.12 29.3047 17.0126 29.3047 19.0577C29.3047 23.2717 27 26.8136 21.4922 27.8361C21.9639 28.3258 22.3385 28.9099 22.5941 29.5541C22.8496 30.1984 22.981 30.8899 22.9805 31.5883V36.227C23.0117 36.5981 22.9805 36.965 23.5664 36.965C30.4844 34.5034 35.4648 27.6052 35.4648 19.4783C35.4648 9.28556 27.6367 1.03491 17.9844 1.03491Z" fill="white"/>
</svg>
