<svg width="25" height="25" viewBox="0 0 25 25" fill="none" xmlns="http://www.w3.org/2000/svg">
<path d="M20.4493 9.52151C20.1865 9.4292 19.9218 9.34323 19.6552 9.26361C19.6994 9.07863 19.7402 8.89261 19.7775 8.70552C20.3789 5.6984 19.9857 3.27579 18.6437 2.47829C17.3587 1.71303 15.2514 2.51053 13.1256 4.41733C12.9166 4.60547 12.7118 4.79925 12.5114 4.99867C12.3778 4.8662 12.2407 4.73654 12.1002 4.6097C9.8721 2.57078 7.63885 1.71198 6.29839 2.51211C5.01344 3.27896 4.63155 5.55623 5.17277 8.40639C5.22691 8.68826 5.28773 8.96889 5.35524 9.24828C5.03914 9.34077 4.73384 9.4396 4.44189 9.54424C1.83293 10.4823 0.164551 11.9531 0.164551 13.4783C0.164551 15.0543 1.95526 16.6345 4.67576 17.5927C4.89642 17.6698 5.11915 17.7415 5.34393 17.8078C5.27094 18.1069 5.20635 18.4094 5.15016 18.7152C4.63618 21.5162 5.03708 23.7396 6.31946 24.5016C7.64399 25.2886 9.86593 24.48 12.0318 22.5298C12.2032 22.3755 12.3745 22.2126 12.5458 22.041C12.7624 22.2562 12.9851 22.4652 13.214 22.6678C15.311 24.527 17.3819 25.278 18.6622 24.5138C19.9857 23.7242 20.4159 21.3354 19.8572 18.4293C19.8144 18.2073 19.765 17.9807 19.7092 17.7496C19.8654 17.7021 20.0184 17.6529 20.1681 17.6022C22.995 16.6366 24.8366 15.0754 24.8366 13.4799C24.8356 11.9473 23.1138 10.467 20.4493 9.52151ZM13.819 5.23649C15.64 3.60292 17.3423 2.95816 18.1184 3.41901C18.9444 3.90998 19.2656 5.88971 18.7465 8.4862C18.7122 8.65531 18.6752 8.8239 18.6355 8.99196C17.5487 8.73779 16.4467 8.55841 15.3367 8.45501C14.7012 7.5137 14.0046 6.61763 13.2515 5.77291C13.4359 5.589 13.6247 5.41019 13.8179 5.23649H13.819ZM7.44919 14.7816C7.67226 15.2255 7.90544 15.664 8.14872 16.097C8.39646 16.5388 8.65465 16.9741 8.92329 17.4029C8.15955 17.3175 7.40059 17.1918 6.64944 17.0261C6.86737 16.301 7.13567 15.5479 7.44919 14.7816ZM7.44919 12.2274C7.1408 11.4775 6.8797 10.7397 6.66537 10.0273C7.36953 9.86503 8.11994 9.73238 8.90222 9.63197C8.64009 10.0526 8.38789 10.4795 8.14564 10.9125C7.90338 11.3455 7.67072 11.7838 7.44765 12.2274H7.44919ZM8.00943 13.5048C8.33427 12.8082 8.68412 12.125 9.05898 11.4553C9.4335 10.7858 9.83218 10.1317 10.255 9.49297C10.989 9.4359 11.7414 9.40577 12.5016 9.40577C13.2618 9.40577 14.0189 9.4359 14.7523 9.4935C15.1707 10.1309 15.567 10.7827 15.9412 11.4489C16.3154 12.1152 16.6698 12.7952 17.0046 13.4889C16.6743 14.1879 16.3207 14.8739 15.9437 15.5469C15.5699 16.2163 15.1759 16.8723 14.7616 17.515C14.0292 17.5678 13.271 17.5969 12.5001 17.5969C11.7291 17.5969 10.9854 17.572 10.2663 17.524C9.8404 16.8831 9.43847 16.2261 9.06052 15.5532C8.68257 14.8803 8.3317 14.1974 8.00789 13.5048H8.00943ZM16.8561 16.0896C17.1045 15.6464 17.343 15.1973 17.5715 14.7425C17.8848 15.4729 18.1614 16.2194 18.4001 16.9791C17.6401 17.155 16.8716 17.29 16.0979 17.3834C16.359 16.9574 16.6117 16.5262 16.8561 16.0896ZM17.5612 12.2279C17.3337 11.7822 17.0971 11.3418 16.8514 10.9067C16.6116 10.4776 16.3616 10.0537 16.1015 9.63514C16.8884 9.73767 17.6435 9.87402 18.3512 10.0405C18.1237 10.7828 17.86 11.5128 17.5612 12.2279ZM12.5119 6.54927C13.0251 7.12591 13.5097 7.7288 13.9639 8.35566C12.9925 8.30809 12.0204 8.30809 11.0476 8.35566C11.5271 7.7035 12.018 7.09837 12.5119 6.54927ZM6.82882 3.45125C7.65427 2.95869 9.47942 3.66264 11.4032 5.42094C11.5261 5.53351 11.65 5.65136 11.7733 5.77344C11.0164 6.61804 10.3148 7.51333 9.67319 8.45343C8.56569 8.55603 7.46585 8.73257 6.38063 8.98192C6.31792 8.72261 6.26138 8.46153 6.21101 8.1987C5.74586 5.75547 6.05374 3.91368 6.82882 3.45125ZM5.62559 16.7613C5.42 16.7011 5.21698 16.6357 5.01652 16.5653C3.81381 16.1425 2.82029 15.5907 2.13824 14.9898C1.52763 14.4513 1.21821 13.9138 1.21821 13.4783C1.21821 12.5529 2.55764 11.3723 4.7914 10.5716C5.07203 10.4712 5.35507 10.3794 5.6405 10.2963C5.97225 11.3925 6.37402 12.4651 6.84321 13.5069C6.36843 14.5631 5.96168 15.6503 5.62559 16.7613ZM11.3375 21.7117C10.3799 22.5742 9.42082 23.1857 8.57532 23.4938C7.81566 23.7702 7.21071 23.7781 6.84527 23.5609C6.0671 23.0985 5.74329 21.3127 6.1848 18.9176C6.23723 18.6357 6.29719 18.3539 6.3647 18.072C7.46078 18.3148 8.57166 18.4806 9.68963 18.5683C10.3375 19.5132 11.0449 20.4136 11.8072 21.2636C11.6541 21.4184 11.4973 21.5674 11.3375 21.7117ZM12.5412 20.4846C12.0416 19.9291 11.543 19.3145 11.0568 18.6539C11.5293 18.6729 12.0104 18.6824 12.5001 18.6824C13.0028 18.6824 13.5003 18.6713 13.9906 18.6486C13.5381 19.2855 13.0544 19.8983 12.5412 20.4846ZM18.9413 21.9955C18.7943 22.8115 18.4987 23.3559 18.1333 23.5736C17.3556 24.0376 15.6929 23.4346 13.9002 21.8444C13.6946 21.6626 13.489 21.4676 13.2798 21.263C14.0273 20.4098 14.7181 19.5058 15.3475 18.5572C16.4717 18.4592 17.588 18.2818 18.6884 18.026C18.7388 18.2353 18.7833 18.4404 18.822 18.6412C19.0693 19.9254 19.1047 21.087 18.9413 21.9955ZM19.8356 16.5711C19.7009 16.6171 19.5622 16.6615 19.4213 16.7048C19.0763 15.6034 18.6588 14.5274 18.1719 13.4842C18.6406 12.4549 19.0417 11.3944 19.3725 10.31C19.6249 10.3856 19.87 10.4649 20.106 10.5489C22.3891 11.3586 23.7819 12.5572 23.7819 13.4783C23.7819 14.4613 22.2775 15.7371 19.8356 16.5711Z" fill="#FF2E47"/>
<path d="M12.5 15.7487C12.9375 15.7502 13.3655 15.6182 13.7299 15.3693C14.0943 15.1205 14.3787 14.7661 14.547 14.351C14.7154 13.9359 14.7602 13.4787 14.6758 13.0374C14.5913 12.5961 14.3814 12.1905 14.0726 11.8719C13.7638 11.5534 13.37 11.3362 12.9411 11.2479C12.5121 11.1596 12.0674 11.2042 11.6631 11.376C11.2589 11.5478 10.9133 11.839 10.6701 12.2129C10.4269 12.5868 10.2971 13.0264 10.2971 13.4762C10.2965 13.7742 10.353 14.0694 10.4634 14.3449C10.5738 14.6204 10.736 14.8709 10.9406 15.0819C11.1451 15.293 11.3882 15.4605 11.6558 15.5749C11.9233 15.6893 12.2102 15.7484 12.5 15.7487Z" fill="#FF2E47"/>
</svg>
