<svg width="25" height="23" viewBox="0 0 25 23" fill="none" xmlns="http://www.w3.org/2000/svg">
<g clip-path="url(#clip0_792_10)">
<path d="M20.4493 7.31496C20.1865 7.22519 19.9218 7.14158 19.6552 7.06414C19.6994 6.88425 19.7402 6.70332 19.7775 6.52138C20.3789 3.59683 19.9857 1.24074 18.6437 0.465145C17.3587 -0.279098 15.2514 0.496498 13.1256 2.35094C12.9166 2.53392 12.7118 2.72238 12.5114 2.91632C12.3778 2.78748 12.2407 2.66138 12.1002 2.53803C9.8721 0.555092 7.63885 -0.280126 6.29839 0.49804C5.01344 1.24383 4.63155 3.45857 5.17277 6.23046C5.22691 6.50459 5.28773 6.77751 5.35524 7.04923C5.03914 7.13918 4.73384 7.23529 4.44189 7.33706C1.83293 8.24938 0.164551 9.67978 0.164551 11.1631C0.164551 12.6958 1.95526 14.2326 4.67576 15.1645C4.89642 15.2395 5.11915 15.3092 5.34393 15.3737C5.27094 15.6646 5.20635 15.9587 5.15016 16.2562C4.63618 18.9803 5.03708 21.1426 6.31946 21.8837C7.64399 22.6491 9.86593 21.8627 12.0318 19.9661C12.2032 19.816 12.3745 19.6575 12.5458 19.4906C12.7624 19.7 12.9851 19.9032 13.214 20.1002C15.311 21.9084 17.3819 22.6388 18.6622 21.8956C19.9857 21.1277 20.4159 18.8045 19.8572 15.9781C19.8144 15.7622 19.765 15.5419 19.7092 15.3171C19.8654 15.2709 20.0184 15.2231 20.1681 15.1737C22.995 14.2347 24.8366 12.7164 24.8366 11.1647C24.8356 9.67413 23.1138 8.23447 20.4493 7.31496ZM13.819 3.14761C15.64 1.5589 17.3423 0.93184 18.1184 1.38003C18.9444 1.85752 19.2656 3.78289 18.7465 6.30807C18.7122 6.47255 18.6752 6.63651 18.6355 6.79995C17.5487 6.55276 16.4467 6.37831 15.3367 6.27775C14.7012 5.36229 14.0046 4.49082 13.2515 3.6693C13.4359 3.49043 13.6247 3.31654 13.8179 3.14761H13.819ZM7.44919 12.4306C7.67226 12.8624 7.90544 13.2888 8.14872 13.7099C8.39646 14.1396 8.65465 14.5629 8.92329 14.98C8.15955 14.8969 7.40059 14.7746 6.64944 14.6135C6.86737 13.9083 7.13567 13.1759 7.44919 12.4306ZM7.44919 9.94654C7.1408 9.2172 6.8797 8.49969 6.66537 7.80684C7.36953 7.64905 8.11994 7.52004 8.90222 7.42238C8.64009 7.83151 8.38789 8.24664 8.14564 8.66776C7.90338 9.08888 7.67072 9.51514 7.44765 9.94654H7.44919ZM8.00943 11.1888C8.33427 10.5114 8.68412 9.847 9.05898 9.19561C9.4335 8.54457 9.83218 7.90844 10.255 7.28721C10.989 7.2317 11.7414 7.2024 12.5016 7.2024C13.2618 7.2024 14.0189 7.2317 14.7523 7.28772C15.1707 7.90758 15.567 8.54149 15.9412 9.18945C16.3154 9.8374 16.6698 10.4987 17.0046 11.1734C16.6743 11.8532 16.3207 12.5204 15.9437 13.1749C15.5699 13.8259 15.1759 14.4639 14.7616 15.0889C14.0292 15.1403 13.271 15.1686 12.5001 15.1686C11.7291 15.1686 10.9854 15.1444 10.2663 15.0977C9.8404 14.4744 9.43847 13.8355 9.06052 13.181C8.68257 12.5266 8.3317 11.8625 8.00789 11.1888H8.00943ZM16.8561 13.7027C17.1045 13.2717 17.343 12.8349 17.5715 12.3926C17.8848 13.1029 18.1614 13.829 18.4001 14.5677C17.6401 14.7389 16.8716 14.8701 16.0979 14.9609C16.359 14.5467 16.6117 14.1273 16.8561 13.7027ZM17.5612 9.94705C17.3337 9.5136 17.0971 9.08528 16.8514 8.6621C16.6116 8.24475 16.3616 7.83254 16.1015 7.42547C16.8884 7.52518 17.6435 7.65779 18.3512 7.81969C18.1237 8.54159 17.86 9.2516 17.5612 9.94705ZM12.5119 4.42434C13.0251 4.98514 13.5097 5.57148 13.9639 6.18112C12.9925 6.13486 12.0204 6.13486 11.0476 6.18112C11.5271 5.54687 12.018 4.95836 12.5119 4.42434ZM6.82882 1.41138C7.65427 0.932354 9.47942 1.61698 11.4032 3.32699C11.5261 3.43647 11.65 3.55108 11.7733 3.66981C11.0164 4.49121 10.3148 5.36192 9.67319 6.27621C8.56569 6.37599 7.46585 6.54768 6.38063 6.79019C6.31792 6.53799 6.26138 6.28409 6.21101 6.02847C5.74586 3.65234 6.05374 1.86112 6.82882 1.41138ZM5.62559 14.356C5.42 14.2974 5.21698 14.2338 5.01652 14.1653C3.81381 13.7541 2.82029 13.2175 2.13824 12.6331C1.52763 12.1094 1.21821 11.5867 1.21821 11.1631C1.21821 10.2632 2.55764 9.11492 4.7914 8.33624C5.07203 8.23858 5.35507 8.14932 5.6405 8.06846C5.97225 9.1346 6.37402 10.1777 6.84321 11.1909C6.36843 12.2181 5.96168 13.2754 5.62559 14.356ZM11.3375 19.1704C10.3799 20.0092 9.42082 20.6039 8.57532 20.9036C7.81566 21.1724 7.21071 21.1801 6.84527 20.9688C6.0671 20.5191 5.74329 18.7824 6.1848 16.453C6.23723 16.1789 6.29719 15.9048 6.3647 15.6306C7.46078 15.8668 8.57166 16.028 9.68963 16.1133C10.3375 17.0323 11.0449 17.908 11.8072 18.7346C11.6541 18.8852 11.4973 19.0301 11.3375 19.1704ZM12.5412 17.977C12.0416 17.4368 11.543 16.839 11.0568 16.1965C11.5293 16.215 12.0104 16.2243 12.5001 16.2243C13.0028 16.2243 13.5003 16.2135 13.9906 16.1914C13.5381 16.8108 13.0544 17.4068 12.5412 17.977ZM18.9413 19.4464C18.7943 20.24 18.4987 20.7694 18.1333 20.9812C17.3556 21.4325 15.6929 20.846 13.9002 19.2994C13.6946 19.1226 13.489 18.933 13.2798 18.7341C14.0273 17.9042 14.7181 17.025 15.3475 16.1025C16.4717 16.0072 17.588 15.8346 18.6884 15.5859C18.7388 15.7895 18.7833 15.9889 18.822 16.1842C19.0693 17.4332 19.1047 18.5629 18.9413 19.4464ZM19.8356 14.1709C19.7009 14.2157 19.5622 14.2588 19.4213 14.301C19.0763 13.2298 18.6588 12.1833 18.1719 11.1688C18.6406 10.1678 19.0417 9.13646 19.3725 8.08182C19.6249 8.15532 19.87 8.23242 20.106 8.31414C22.3891 9.10156 23.7819 10.2673 23.7819 11.1631C23.7819 12.1191 22.2775 13.3599 19.8356 14.1709Z" fill="#FF2E47"/>
<path d="M12.5 13.3712C12.9375 13.3726 13.3655 13.2442 13.7299 13.0022C14.0943 12.7602 14.3787 12.4156 14.547 12.0119C14.7154 11.6081 14.7602 11.1635 14.6758 10.7343C14.5913 10.3051 14.3814 9.91066 14.0726 9.60085C13.7638 9.29104 13.37 9.07983 12.9411 8.99397C12.5121 8.90811 12.0674 8.95145 11.6631 9.11852C11.2589 9.28558 10.9133 9.56885 10.6701 9.93246C10.4269 10.2961 10.2971 10.7237 10.2971 11.1611C10.2965 11.4509 10.353 11.738 10.4634 12.0059C10.5738 12.2739 10.736 12.5174 10.9406 12.7227C11.1451 12.9279 11.3882 13.0909 11.6558 13.2021C11.9233 13.3134 12.2102 13.3709 12.5 13.3712Z" fill="#FF2E47"/>
</g>
<defs>
<clipPath id="clip0_792_10">
<rect width="25" height="22.3684" fill="white"/>
</clipPath>
</defs>
</svg>
