<svg width="25" height="25" viewBox="0 0 25 25" fill="none" xmlns="http://www.w3.org/2000/svg">
<g clip-path="url(#clip0_792_13)">
<path d="M0 12.5V25H12.5H25V12.5V0H12.5H0V12.5Z" fill="#FF2E47"/>
<path d="M5.52849 12.5829L5.52055 13.6067H7.14754H8.77452V18.2298V22.8528H9.92532H11.0761V18.2298V13.6067H12.7031H14.3301V12.6028C14.3301 12.0472 14.3182 11.5829 14.3023 11.571C14.2904 11.5551 12.3102 11.5472 9.90944 11.5512L5.5404 11.5631L5.52849 12.5829Z" fill="white"/>
<path d="M20.1724 11.534C20.8073 11.6928 21.2915 11.9745 21.7359 12.4348C21.9661 12.6809 22.3073 13.1293 22.3351 13.2364C22.3431 13.2682 21.2558 13.9983 20.597 14.407C20.5732 14.4229 20.478 14.3197 20.3708 14.161C20.0494 13.6928 19.7121 13.4904 19.1962 13.4547C18.4383 13.4031 17.9502 13.7999 17.9542 14.4626C17.9542 14.657 17.9819 14.7721 18.0613 14.9309C18.228 15.2761 18.5375 15.4824 19.5097 15.9031C21.2994 16.6729 22.0653 17.1809 22.5415 17.9031C23.0732 18.7086 23.1923 19.9943 22.8312 20.9507C22.4343 21.9904 21.4502 22.6967 20.0653 22.9309C19.6367 23.0062 18.6208 22.9943 18.1605 22.911C17.1566 22.7324 16.2042 22.2364 15.6169 21.5856C15.3867 21.3316 14.9383 20.6689 14.9661 20.6213C14.978 20.6055 15.0812 20.542 15.1962 20.4745C15.3073 20.411 15.728 20.1689 16.1248 19.9388L16.8431 19.5221L16.9939 19.7443C17.2042 20.0658 17.6645 20.5062 17.9423 20.6531C18.7399 21.0737 19.8351 21.0142 20.3748 20.5301C20.605 20.3197 20.7002 20.1015 20.7002 19.7801C20.7002 19.4904 20.6645 19.3634 20.5137 19.1451C20.3193 18.8674 19.9224 18.6332 18.7954 18.1451C17.5058 17.5896 16.9502 17.2443 16.4423 16.6967C16.1486 16.3793 15.8708 15.8713 15.7558 15.4467C15.6605 15.0936 15.6367 14.2086 15.7121 13.8515C15.978 12.6055 16.9185 11.7364 18.2756 11.4785C18.7161 11.3951 19.7399 11.4269 20.1724 11.534Z" fill="white"/>
</g>
<defs>
<clipPath id="clip0_792_13">
<rect width="25" height="25" rx="4" fill="white"/>
</clipPath>
</defs>
</svg>
