<svg width="112" height="23" viewBox="0 0 112 23" fill="none" xmlns="http://www.w3.org/2000/svg">
<path d="M96.9062 9.73828V18H94.0938V7.43359H96.7402L96.9062 9.73828ZM100.09 7.36523L100.041 9.97266C99.9043 9.95312 99.7383 9.93685 99.543 9.92383C99.3542 9.9043 99.1816 9.89453 99.0254 9.89453C98.6283 9.89453 98.2832 9.94661 97.9902 10.0508C97.7038 10.1484 97.4629 10.2949 97.2676 10.4902C97.0788 10.6855 96.9355 10.9232 96.8379 11.2031C96.7467 11.4831 96.6947 11.8021 96.6816 12.1602L96.1152 11.9844C96.1152 11.3008 96.1836 10.6725 96.3203 10.0996C96.457 9.52018 96.6556 9.01562 96.916 8.58594C97.1829 8.15625 97.5085 7.82422 97.8926 7.58984C98.2767 7.35547 98.7161 7.23828 99.2109 7.23828C99.3672 7.23828 99.5267 7.2513 99.6895 7.27734C99.8522 7.29688 99.9857 7.32617 100.09 7.36523ZM107.668 15.4707V7.43359H110.48V18H107.834L107.668 15.4707ZM107.98 13.3027L108.811 13.2832C108.811 13.9863 108.729 14.6406 108.566 15.2461C108.404 15.8451 108.16 16.3659 107.834 16.8086C107.508 17.2448 107.098 17.5866 106.604 17.834C106.109 18.0749 105.526 18.1953 104.855 18.1953C104.341 18.1953 103.866 18.1237 103.43 17.9805C103 17.8307 102.629 17.5996 102.316 17.2871C102.01 16.9681 101.77 16.5612 101.594 16.0664C101.424 15.5651 101.34 14.9629 101.34 14.2598V7.43359H104.152V14.2793C104.152 14.5918 104.188 14.8555 104.26 15.0703C104.338 15.2852 104.445 15.4609 104.582 15.5977C104.719 15.7344 104.878 15.832 105.061 15.8906C105.249 15.9492 105.458 15.9785 105.686 15.9785C106.265 15.9785 106.721 15.8613 107.053 15.627C107.391 15.3926 107.629 15.0736 107.766 14.6699C107.909 14.2598 107.98 13.804 107.98 13.3027Z" fill="white"/>
<path d="M5.95703 18.1953C5.13672 18.1953 4.40104 18.0651 3.75 17.8047C3.09896 17.5378 2.54557 17.1699 2.08984 16.7012C1.64062 16.2324 1.29557 15.6888 1.05469 15.0703C0.813802 14.4453 0.693359 13.7812 0.693359 13.0781V12.6875C0.693359 11.8867 0.807292 11.1543 1.03516 10.4902C1.26302 9.82617 1.58854 9.25 2.01172 8.76172C2.44141 8.27344 2.96224 7.89909 3.57422 7.63867C4.1862 7.37174 4.8763 7.23828 5.64453 7.23828C6.39323 7.23828 7.05729 7.36198 7.63672 7.60938C8.21615 7.85677 8.70117 8.20833 9.0918 8.66406C9.48893 9.11979 9.78841 9.66667 9.99023 10.3047C10.1921 10.9362 10.293 11.6393 10.293 12.4141V13.5859H1.89453V11.7109H7.5293V11.4961C7.5293 11.1055 7.45768 10.7572 7.31445 10.4512C7.17773 10.1387 6.9694 9.89128 6.68945 9.70898C6.40951 9.52669 6.05143 9.43555 5.61523 9.43555C5.24414 9.43555 4.92513 9.51693 4.6582 9.67969C4.39128 9.84245 4.17318 10.0703 4.00391 10.3633C3.84115 10.6562 3.71745 11.0013 3.63281 11.3984C3.55469 11.7891 3.51562 12.2188 3.51562 12.6875V13.0781C3.51562 13.5013 3.57422 13.8919 3.69141 14.25C3.8151 14.6081 3.98763 14.9173 4.20898 15.1777C4.43685 15.4382 4.71029 15.64 5.0293 15.7832C5.35482 15.9264 5.72266 15.998 6.13281 15.998C6.64062 15.998 7.11263 15.9004 7.54883 15.7051C7.99154 15.5033 8.3724 15.2005 8.69141 14.7969L10.0586 16.2812C9.83724 16.6003 9.53451 16.9062 9.15039 17.1992C8.77279 17.4922 8.31706 17.7331 7.7832 17.9219C7.24935 18.1042 6.64062 18.1953 5.95703 18.1953ZM14.6484 9.68945V18H11.8359V7.43359H14.4727L14.6484 9.68945ZM14.2383 12.3457H13.4766C13.4766 11.5645 13.5775 10.8613 13.7793 10.2363C13.9811 9.60482 14.2643 9.06771 14.6289 8.625C14.9935 8.17578 15.4264 7.83398 15.9277 7.59961C16.4355 7.35872 17.002 7.23828 17.627 7.23828C18.1217 7.23828 18.5742 7.3099 18.9844 7.45312C19.3945 7.59635 19.7461 7.82422 20.0391 8.13672C20.3385 8.44922 20.5664 8.86263 20.7227 9.37695C20.8854 9.89128 20.9668 10.5195 20.9668 11.2617V18H18.1348V11.252C18.1348 10.7832 18.0697 10.4186 17.9395 10.1582C17.8092 9.89779 17.6172 9.71549 17.3633 9.61133C17.1159 9.50065 16.8099 9.44531 16.4453 9.44531C16.0677 9.44531 15.7389 9.52018 15.459 9.66992C15.1855 9.81966 14.9577 10.028 14.7754 10.2949C14.5996 10.5553 14.4661 10.8613 14.375 11.2129C14.2839 11.5645 14.2383 11.9421 14.2383 12.3457Z" fill="white"/>
<rect x="33.5" y="0.5" width="49" height="21.9299" rx="10.965" fill="white" stroke="white"/>
<rect x="40" y="3.82166" width="15" height="15" rx="7.5" fill="#139FEC"/>
</svg>
